<?xml version="1.0" encoding="utf-8"?>
<!-- Generator: Adobe Illustrator 19.1.0, SVG Export Plug-In . SVG Version: 6.00 Build 0)  -->
<svg version="1.1" id="Layer_1" xmlns="http://www.w3.org/2000/svg" xmlns:xlink="http://www.w3.org/1999/xlink" x="0px" y="0px"
	 viewBox="0 0 310 95" style="enable-background:new 0 0 310 95;" xml:space="preserve">
<style type="text/css">
	.st0{fill:#1C76BA;}
	.st1{fill:#FFFFFF;}
</style>
<g>
	<path class="st0" d="M34.6,91.8c-3.8,0-7.3-2-9.2-5.3L5.9,52.8c-1.9-3.3-1.9-7.3,0-10.6L25.4,8.4c1.9-3.3,5.4-5.3,9.2-5.3h240.8
		c3.8,0,7.3,2,9.2,5.3l19.5,33.8c1.9,3.3,1.9,7.3,0,10.6l-19.5,33.8c-1.9,3.3-5.4,5.3-9.2,5.3H34.6z"/>
	<path class="st1" d="M34.6,89.1c-2.8,0-5.4-1.5-6.8-3.9L8.3,51.4c-1.4-2.4-1.4-5.4,0-7.9L27.8,9.8c1.4-2.4,4-3.9,6.8-3.9h240.8
		c2.8,0,5.4,1.5,6.8,3.9l19.5,33.8c1.4,2.4,1.4,5.4,0,7.9l-19.5,33.8c-1.4,2.4-4,3.9-6.8,3.9H34.6z"/>
	<path class="st1" d="M275.4,7.4c2.3,0,4.4,1.2,5.5,3.2l19.5,33.8c1.1,2,1.1,4.4,0,6.4l-19.5,33.8c-1.1,2-3.2,3.2-5.5,3.2H34.6
		c-2.3,0-4.4-1.2-5.5-3.2L9.6,50.7c-1.1-2-1.1-4.4,0-6.4l19.5-33.8c1.1-2,3.2-3.2,5.5-3.2H275.4z M275.4,4.4H34.6
		c-3.3,0-6.4,1.8-8.1,4.7L7,42.8c-1.7,2.9-1.7,6.5,0,9.4l19.5,33.8c1.7,2.9,4.8,4.7,8.1,4.7h240.8c3.3,0,6.4-1.8,8.1-4.7L303,52.2
		c1.7-2.9,1.7-6.5,0-9.4L283.5,9.1C281.9,6.2,278.8,4.4,275.4,4.4"/>
	<path class="st0" d="M31,82.1l-18.5-32c-1-1.7-1-3.7,0-5.4l18.5-32c1-1.7,2.7-2.7,4.6-2.7h238.7c1.9,0,3.7,1,4.6,2.7l18.5,32
		c1,1.7,1,3.7,0,5.4l-18.5,32c-1,1.7-2.7,2.7-4.6,2.7H35.6C33.7,84.8,31.9,83.8,31,82.1"/>
	<g>
		<path class="st1" d="M32.9,32.9h11.4c3.3,0,5.9,0.8,7.9,2.4c2,1.6,3,4,3,7.1c0,3.2-1.1,5.6-3.2,7.3c-2.1,1.6-4.9,2.4-8.2,2.4h-3.6
			v10.1h-7.4V32.9z M40.3,45.8h3.5c2.7,0,4.1-1,4.1-3.1c0-2.2-1.4-3.3-4.1-3.3h-3.5V45.8z"/>
		<path class="st1" d="M61.3,62.1h-7.7l11.2-29.3h8.3l11.2,29.3h-7.8l-2-5.4H63.3L61.3,62.1z M68.9,41.2l-3.5,9.3h7L68.9,41.2z"/>
		<path class="st1" d="M94.5,62.1h-7.4V32.9h12c3.3,0,6,0.8,8,2.4s3,3.9,3,7c0,4.5-2.4,7.2-5.8,8.4l6.5,11.4h-8l-5.9-10.3h-2.4V62.1
			z M94.5,45.6h4.1c2.7,0,4.1-1.1,4.1-3c0-2-1.3-3.3-4.1-3.3h-4V45.6z"/>
		<path class="st1" d="M120.1,39.6h-8.3v-6.7h23.9v6.7h-8.3v22.6h-7.4V39.6z"/>
		<path class="st1" d="M146.8,62.1h-7.4V32.9h7.4V62.1z"/>
		<path class="st1" d="M155.6,36.8c3-3,6.6-4.4,10.9-4.4c3.1,0,5.8,0.7,8.2,2.2c2.4,1.5,4,3.6,5,6.2l-6.5,3.1
			c-1.3-3.1-3.5-4.7-6.8-4.7c-2.1,0-3.9,0.8-5.4,2.4c-1.5,1.6-2.2,3.5-2.2,5.8s0.7,4.1,2.1,5.8c1.5,1.6,3.3,2.4,5.5,2.4
			c3.2,0,5.5-1.6,6.9-4.7l6.6,3.1c-1,2.7-2.8,4.8-5.2,6.3c-2.4,1.5-5.2,2.3-8.3,2.3c-4.3,0-7.8-1.4-10.8-4.3
			c-2.9-2.9-4.4-6.5-4.4-10.8C151.2,43.3,152.7,39.8,155.6,36.8z"/>
		<path class="st1" d="M191,62.1h-7.4V32.9h7.4V62.1z"/>
		<path class="st1" d="M197,32.9h11.4c3.3,0,5.9,0.8,7.9,2.4c2,1.6,3,4,3,7.1c0,3.2-1.1,5.6-3.2,7.3c-2.1,1.6-4.9,2.4-8.2,2.4h-3.6
			v10.1H197V32.9z M204.4,45.8h3.5c2.7,0,4.1-1,4.1-3.1c0-2.2-1.4-3.3-4.1-3.3h-3.5V45.8z"/>
		<path class="st1" d="M225.4,62.1h-7.7l11.2-29.3h8.3l11.2,29.3h-7.8l-2-5.4h-11.3L225.4,62.1z M233,41.2l-3.5,9.3h7L233,41.2z"/>
		<path class="st1" d="M258.6,62.1h-7.4V32.9h12c3.3,0,6,0.8,8,2.4s3,3.9,3,7c0,4.5-2.4,7.2-5.8,8.4l6.5,11.4h-8L261,51.9h-2.4V62.1
			z M258.6,45.6h4.1c2.7,0,4.1-1.1,4.1-3c0-2-1.3-3.3-4.1-3.3h-4V45.6z"/>
	</g>
</g>
</svg>
