<?xml version="1.0" encoding="utf-8"?>
<!-- Generator: Adobe Illustrator 19.1.0, SVG Export Plug-In . SVG Version: 6.00 Build 0)  -->
<svg version="1.1" id="Layer_1" xmlns="http://www.w3.org/2000/svg" xmlns:xlink="http://www.w3.org/1999/xlink" x="0px" y="0px"
	 viewBox="-105 216 748 130" style="enable-background:new -105 216 748 130;" xml:space="preserve">
<style type="text/css">
	.st0{clip-path:url(#SVGID_2_);fill:url(#SVGID_3_);}
	.st1{fill:#FFFFFF;}
	.st2{clip-path:url(#SVGID_5_);fill:url(#SVGID_6_);}
	.st3{clip-path:url(#SVGID_8_);fill:url(#SVGID_9_);}
	.st4{fill:url(#SVGID_10_);}
	.st5{clip-path:url(#SVGID_12_);fill:url(#SVGID_13_);}
</style>
<g>
	<g>
		<g>
			<g>
				<defs>
					<path id="SVGID_1_" d="M-59,218.2c-4.4,0-8.5,2.4-10.7,6.2l-29.2,50.4c-2.2,3.8-2.2,8.5,0,12.3l29.2,50.5
						c2.2,3.8,6.3,6.2,10.7,6.2h656c4.4,0,8.5-2.4,10.7-6.2l29.2-50.5c2.2-3.8,2.2-8.5,0-12.3l-29.2-50.5c-2.2-3.8-6.3-6.2-10.7-6.2
						L-59,218.2L-59,218.2z"/>
				</defs>
				<clipPath id="SVGID_2_">
					<use xlink:href="#SVGID_1_"  style="overflow:visible;"/>
				</clipPath>
				
					<linearGradient id="SVGID_3_" gradientUnits="userSpaceOnUse" x1="-376.482" y1="-464.7808" x2="-375.482" y2="-464.7808" gradientTransform="matrix(-318.5321 420.133 -420.133 -318.5321 -314751.25 10180.2373)">
					<stop  offset="0" style="stop-color:#0671B8"/>
					<stop  offset="1" style="stop-color:#682680"/>
				</linearGradient>
				<polygon class="st0" points="699.6,264 368.9,700.2 -161.6,298 169.1,-138.2 				"/>
			</g>
		</g>
		<path class="st1" d="M597,224.1H-59c-2.3,0-4.4,1.2-5.5,3.2l-29.2,50.5c-1.1,2-1.1,4.4,0,6.4l29.2,50.5c1.1,2,3.2,3.2,5.5,3.2h656
			c2.3,0,4.4-1.2,5.5-3.2l29.2-50.5c1.1-2,1.1-4.4,0-6.4l-29.2-50.5C601.4,225.3,599.3,224.1,597,224.1"/>
		<g>
			<g>
				<defs>
					<path id="SVGID_4_" d="M-57.3,228.1c-1.9,0-3.7,1-4.6,2.7l-27.5,47.5c-1,1.7-1,3.7,0,5.4l27.4,47.5c1,1.7,2.7,2.7,4.6,2.7
						h652.6c1.9,0,3.7-1,4.6-2.7l27.4-47.5c1-1.7,1-3.7,0-5.4L600,230.8c-1-1.7-2.7-2.7-4.6-2.7H-57.3z"/>
				</defs>
				<clipPath id="SVGID_5_">
					<use xlink:href="#SVGID_4_"  style="overflow:visible;"/>
				</clipPath>
				
					<linearGradient id="SVGID_6_" gradientUnits="userSpaceOnUse" x1="-374.3718" y1="-464.4508" x2="-373.3718" y2="-464.4508" gradientTransform="matrix(0 -200.6265 200.6265 0 93450.0781 -74712.6016)">
					<stop  offset="0" style="stop-color:#0671B8"/>
					<stop  offset="1" style="stop-color:#682680"/>
				</linearGradient>
				<rect x="-90.4" y="228.1" class="st2" width="718.7" height="105.8"/>
			</g>
		</g>
	</g>
</g>
<g>
	<g>
		<defs>
			<path id="SVGID_7_" d="M-58.2,219.3c-4.4,0-8.5,2.4-10.7,6.2L-98,276c-2.2,3.8-2.2,8.5,0,12.3l29.2,50.5
				c2.2,3.8,6.3,6.2,10.7,6.2h656.1c4.4,0,8.5-2.4,10.7-6.2l29.2-50.5c2.2-3.8,2.2-8.5,0-12.3l-29.2-50.5c-2.2-3.8-6.3-6.2-10.7-6.2
				H-58.2z"/>
		</defs>
		<clipPath id="SVGID_8_">
			<use xlink:href="#SVGID_7_"  style="overflow:visible;"/>
		</clipPath>
		
			<linearGradient id="SVGID_9_" gradientUnits="userSpaceOnUse" x1="-269.2788" y1="1241.5465" x2="-268.2788" y2="1241.5465" gradientTransform="matrix(-318.5321 420.1331 420.1331 318.5321 -606947.6875 -282283.0625)">
			<stop  offset="0" style="stop-color:#A33800"/>
			<stop  offset="0.1692" style="stop-color:#FF8200"/>
			<stop  offset="0.3535" style="stop-color:#FFCF17"/>
			<stop  offset="0.5025" style="stop-color:#FFEE8D"/>
			<stop  offset="0.6414" style="stop-color:#FFCF17"/>
			<stop  offset="0.798" style="stop-color:#E66000"/>
			<stop  offset="1" style="stop-color:#E66000"/>
		</linearGradient>
		<polygon class="st3" points="700.4,265.2 369.8,701.3 -160.7,299.1 170,-137 		"/>
	</g>
	
		<linearGradient id="SVGID_10_" gradientUnits="userSpaceOnUse" x1="-93.6969" y1="-16102.1465" x2="633.4279" y2="-16102.1465" gradientTransform="matrix(1 0 0 -1 0 -15820)">
		<stop  offset="0" style="stop-color:#FDCA2F"/>
		<stop  offset="1" style="stop-color:#FC9526"/>
	</linearGradient>
	<path class="st4" d="M597.9,225.3H-58.2c-2.3,0-4.4,1.2-5.5,3.2L-92.8,279c-1.1,2-1.1,4.4,0,6.4l29.2,50.5c1.1,2,3.2,3.2,5.5,3.2
		h656.1c2.3,0,4.4-1.2,5.5-3.2l29.2-50.5c1.1-2,1.1-4.4,0-6.4l-29.2-50.5C602.3,226.5,600.2,225.3,597.9,225.3"/>
	<g>
		<defs>
			<path id="SVGID_11_" d="M-56.5,229.3c-1.9,0-3.7,1-4.6,2.7l-27.4,47.5c-1,1.7-1,3.7,0,5.4l27.4,47.5c1,1.7,2.7,2.7,4.6,2.7h652.6
				c1.9,0,3.7-1,4.6-2.7l27.4-47.5c1-1.7,1-3.7,0-5.4l-27.4-47.5c-1-1.7-2.7-2.7-4.6-2.7H-56.5z"/>
		</defs>
		<clipPath id="SVGID_12_">
			<use xlink:href="#SVGID_11_"  style="overflow:visible;"/>
		</clipPath>
		
			<linearGradient id="SVGID_13_" gradientUnits="userSpaceOnUse" x1="-272.378" y1="1241.0007" x2="-271.378" y2="1241.0007" gradientTransform="matrix(0 -200.6265 -200.6265 0 249247.5 -54248.793)">
			<stop  offset="0" style="stop-color:#0671B8"/>
			<stop  offset="1" style="stop-color:#682680"/>
		</linearGradient>
		<rect x="-89.5" y="229.3" class="st5" width="718.7" height="105.8"/>
	</g>
</g>
</svg>
