<?xml version="1.0" encoding="utf-8"?>
<!-- Generator: Adobe Illustrator 19.1.0, SVG Export Plug-In . SVG Version: 6.00 Build 0)  -->
<svg version="1.1" id="Layer_1" xmlns="http://www.w3.org/2000/svg" xmlns:xlink="http://www.w3.org/1999/xlink" x="0px" y="0px"
	 viewBox="0 0 748 130" style="enable-background:new 0 0 748 130;" xml:space="preserve">
<style type="text/css">
	.st0{clip-path:url(#SVGID_2_);fill:url(#SVGID_3_);}
	.st1{fill:#FFFFFF;}
	.st2{clip-path:url(#SVGID_5_);fill:url(#SVGID_6_);}
</style>
<g>
	<g>
		<g>
			<defs>
				<path id="SVGID_1_" d="M46,2.2c-4.4,0-8.5,2.4-10.7,6.2L6.1,58.8c-2.2,3.8-2.2,8.5,0,12.3l29.2,50.5c2.2,3.8,6.3,6.2,10.7,6.2
					H702c4.4,0,8.5-2.4,10.7-6.2l29.2-50.5c2.2-3.8,2.2-8.5,0-12.3L712.7,8.3c-2.2-3.8-6.3-6.2-10.7-6.2H46z"/>
			</defs>
			<clipPath id="SVGID_2_">
				<use xlink:href="#SVGID_1_"  style="overflow:visible;"/>
			</clipPath>
			
				<linearGradient id="SVGID_3_" gradientUnits="userSpaceOnUse" x1="-166.6851" y1="1026.377" x2="-165.6851" y2="1026.377" gradientTransform="matrix(-318.5321 420.133 420.133 318.5321 -483764.25 -257064.7344)">
				<stop  offset="0" style="stop-color:#0671B8"/>
				<stop  offset="1" style="stop-color:#682680"/>
			</linearGradient>
			<polygon class="st0" points="804.6,48 473.9,484.2 -56.6,82 274.1,-354.2 			"/>
		</g>
		<path class="st1" d="M702,8.1H46c-2.3,0-4.4,1.2-5.5,3.2L11.3,61.8c-1.1,2-1.1,4.4,0,6.4l29.2,50.5c1.1,2,3.2,3.2,5.5,3.2H702
			c2.3,0,4.4-1.2,5.5-3.2l29.2-50.5c1.1-2,1.1-4.4,0-6.4l-29.2-50.5C706.4,9.3,704.3,8.1,702,8.1"/>
		<g>
			<defs>
				<path id="SVGID_4_" d="M47.7,12.1c-1.9,0-3.7,1-4.6,2.7L15.6,62.3c-1,1.7-1,3.7,0,5.4L43,115.2c1,1.7,2.7,2.7,4.6,2.7h652.6
					c1.9,0,3.7-1,4.6-2.7l27.4-47.5c1-1.7,1-3.7,0-5.4L705,14.8c-1-1.7-2.7-2.7-4.6-2.7H47.7z"/>
			</defs>
			<clipPath id="SVGID_5_">
				<use xlink:href="#SVGID_4_"  style="overflow:visible;"/>
			</clipPath>
			
				<linearGradient id="SVGID_6_" gradientUnits="userSpaceOnUse" x1="-163.3051" y1="1026.9739" x2="-162.3051" y2="1026.9739" gradientTransform="matrix(0 -200.6265 -200.6265 0 206412.1719 -32583.041)">
				<stop  offset="0" style="stop-color:#0671B8"/>
				<stop  offset="1" style="stop-color:#682680"/>
			</linearGradient>
			<rect x="14.6" y="12.1" class="st2" width="718.7" height="105.8"/>
		</g>
	</g>
</g>
</svg>
