<?xml version="1.0" encoding="utf-8"?>
<!-- Generator: Adobe Illustrator 19.1.0, SVG Export Plug-In . SVG Version: 6.00 Build 0)  -->
<svg version="1.1" id="Layer_1" xmlns="http://www.w3.org/2000/svg" xmlns:xlink="http://www.w3.org/1999/xlink" x="0px" y="0px"
	 viewBox="0 0 530 95" style="enable-background:new 0 0 530 95;" xml:space="preserve">
<style type="text/css">
	.st0{fill:#3FA7F3;}
	.st1{fill:#FFFFFF;}
</style>
<g>
	<path class="st0" d="M34.6,91.8c-3.8,0-7.3-2-9.2-5.3L5.9,52.8c-1.9-3.3-1.9-7.3,0-10.6L25.4,8.4c1.9-3.3,5.4-5.3,9.2-5.3h460.8
		c3.8,0,7.3,2,9.2,5.3l19.5,33.8c1.9,3.3,1.9,7.3,0,10.6l-19.5,33.8c-1.9,3.3-5.4,5.3-9.2,5.3H34.6z"/>
	<path class="st1" d="M495.4,7.4H34.6c-2.3,0-4.4,1.2-5.5,3.2L9.6,44.3c-1.1,2-1.1,4.4,0,6.4l19.5,33.8c1.1,2,3.2,3.2,5.5,3.2h460.8
		c2.3,0,4.4-1.2,5.5-3.2l19.5-33.8c1.1-2,1.1-4.4,0-6.4l-19.5-33.8C499.8,8.6,497.7,7.4,495.4,7.4"/>
</g>
</svg>
