<?xml version="1.0" encoding="utf-8"?>
<!-- Generator: Adobe Illustrator 19.1.0, SVG Export Plug-In . SVG Version: 6.00 Build 0)  -->
<svg version="1.1" id="Layer_1" xmlns="http://www.w3.org/2000/svg" xmlns:xlink="http://www.w3.org/1999/xlink" x="0px" y="0px"
	 viewBox="0 0 520 135" style="enable-background:new 0 0 520 135;" xml:space="preserve">
<style type="text/css">
	.st0{fill:#1C76BA;}
	.st1{fill:#FFFFFF;}
</style>
<g>
	<path class="st0" d="M44.8,132.6c-4.5,0-8.6-2.4-10.9-6.3L3.6,73.8c-2.2-3.9-2.2-8.7,0-12.5L34,8.7c2.2-3.9,6.4-6.3,10.9-6.3h430.3
		c4.5,0,8.6,2.4,10.9,6.3l30.3,52.5c2.2,3.9,2.2,8.7,0,12.5L486,126.3c-2.2,3.9-6.4,6.3-10.9,6.3H44.8z"/>
	<path class="st1" d="M475.2,8.6H44.8c-2.3,0-4.4,1.2-5.5,3.2L9,64.3c-1.1,2-1.1,4.4,0,6.4l30.3,52.5c1.1,2,3.2,3.2,5.5,3.2h430.3
		c2.3,0,4.4-1.2,5.5-3.2L511,70.7c1.1-2,1.1-4.4,0-6.4l-30.3-52.5C479.5,9.8,477.4,8.6,475.2,8.6"/>
	<path class="st0" d="M42,119.6L13.5,70.2c-1-1.7-1-3.7,0-5.4L42,15.4c1-1.7,2.7-2.7,4.6-2.7h426.7c1.9,0,3.7,1,4.6,2.7l28.5,49.4
		c1,1.7,1,3.7,0,5.4L478,119.6c-1,1.7-2.7,2.7-4.6,2.7H46.6C44.7,122.3,43,121.3,42,119.6"/>
</g>
</svg>
