<?xml version="1.0" encoding="utf-8"?>
<!-- Generator: Adobe Illustrator 19.1.0, SVG Export Plug-In . SVG Version: 6.00 Build 0)  -->
<svg version="1.1" id="Layer_1" xmlns="http://www.w3.org/2000/svg" xmlns:xlink="http://www.w3.org/1999/xlink" x="0px" y="0px"
	 viewBox="-165 8127 748 130" style="enable-background:new -165 8127 748 130;" xml:space="preserve">
<style type="text/css">
	.st0{clip-path:url(#SVGID_2_);fill:url(#SVGID_3_);}
	.st1{fill:#FFFFFF;}
	.st2{clip-path:url(#SVGID_5_);fill:url(#SVGID_6_);}
	.st3{clip-path:url(#SVGID_8_);fill:url(#SVGID_9_);}
</style>
<g>
	<g>
		<g>
			<g>
				<defs>
					<path id="SVGID_1_" d="M-119,8129.2c-4.4,0-8.5,2.4-10.7,6.2l-29.2,50.4c-2.2,3.8-2.2,8.5,0,12.3l29.2,50.5
						c2.2,3.8,6.3,6.2,10.7,6.2h656c4.4,0,8.5-2.4,10.7-6.2l29.2-50.5c2.2-3.8,2.2-8.5,0-12.3l-29.2-50.5c-2.2-3.8-6.3-6.2-10.7-6.2
						h-656V8129.2z"/>
				</defs>
				<clipPath id="SVGID_2_">
					<use xlink:href="#SVGID_1_"  style="overflow:visible;"/>
				</clipPath>
				
					<linearGradient id="SVGID_3_" gradientUnits="userSpaceOnUse" x1="-484.5925" y1="15348.0625" x2="-483.5925" y2="15348.0625" gradientTransform="matrix(-318.5321 420.133 -420.133 -318.5321 6294249 5100410)">
					<stop  offset="0" style="stop-color:#0671B8"/>
					<stop  offset="1" style="stop-color:#682680"/>
				</linearGradient>
				<polygon class="st0" points="639.6,8175 308.9,8611.2 -221.6,8209 109.1,7772.8 				"/>
			</g>
		</g>
		<path class="st1" d="M537,8135.1h-656c-2.3,0-4.4,1.2-5.5,3.2l-29.2,50.5c-1.1,2-1.1,4.4,0,6.4l29.2,50.5c1.1,2,3.2,3.2,5.5,3.2
			h656c2.3,0,4.4-1.2,5.5-3.2l29.2-50.5c1.1-2,1.1-4.4,0-6.4l-29.2-50.5C541.4,8136.3,539.3,8135.1,537,8135.1"/>
		<g>
			<g>
				<defs>
					<path id="SVGID_4_" d="M-117.3,8139.1c-1.9,0-3.7,1-4.6,2.7l-27.5,47.5c-1,1.7-1,3.7,0,5.4l27.4,47.5c1,1.7,2.7,2.7,4.6,2.7
						h652.6c1.9,0,3.7-1,4.6-2.7l27.4-47.5c1-1.7,1-3.7,0-5.4l-27.2-47.5c-1-1.7-2.7-2.7-4.6-2.7H-117.3z"/>
				</defs>
				<clipPath id="SVGID_5_">
					<use xlink:href="#SVGID_4_"  style="overflow:visible;"/>
				</clipPath>
				
					<linearGradient id="SVGID_6_" gradientUnits="userSpaceOnUse" x1="-533.8082" y1="15357.8486" x2="-532.8082" y2="15357.8486" gradientTransform="matrix(0 -200.6265 200.6265 0 -3080982.25 -98788.7813)">
					<stop  offset="0" style="stop-color:#0671B8"/>
					<stop  offset="1" style="stop-color:#682680"/>
				</linearGradient>
				<rect x="-150.4" y="8139.1" class="st2" width="718.7" height="105.8"/>
			</g>
		</g>
	</g>
</g>
<g>
	<defs>
		<path id="SVGID_7_" d="M-117.3,8139.1c-1.9,0-3.7,1-4.6,2.7l-27.4,47.5c-1,1.7-1,3.7,0,5.4l27.4,47.5c1,1.7,2.7,2.7,4.6,2.7h652.6
			c1.9,0,3.7-1,4.6-2.7l27.4-47.5c1-1.7,1-3.7,0-5.4l-27.4-47.5c-1-1.7-2.7-2.7-4.6-2.7H-117.3z"/>
	</defs>
	<clipPath id="SVGID_8_">
		<use xlink:href="#SVGID_7_"  style="overflow:visible;"/>
	</clipPath>
	
		<linearGradient id="SVGID_9_" gradientUnits="userSpaceOnUse" x1="-332.3723" y1="9152.0049" x2="-331.3723" y2="9152.0049" gradientTransform="matrix(0 -200.6265 -200.6265 0 1836343.875 -58375.3828)">
		<stop  offset="0" style="stop-color:#B1B1B1"/>
		<stop  offset="1" style="stop-color:#4D4D4D"/>
	</linearGradient>
	<rect x="-150.4" y="8139.1" class="st3" width="718.7" height="105.8"/>
</g>
</svg>
