<?xml version="1.0" encoding="utf-8"?>
<!-- Generator: Adobe Illustrator 19.1.0, SVG Export Plug-In . SVG Version: 6.00 Build 0)  -->
<svg version="1.1" id="Layer_1" xmlns="http://www.w3.org/2000/svg" xmlns:xlink="http://www.w3.org/1999/xlink" x="0px" y="0px"
	 viewBox="0 0 226 54" style="enable-background:new 0 0 226 54;" xml:space="preserve">
<style type="text/css">
	.st0{fill:#FFFFFF;}
</style>
<g>
	<path class="st0" d="M134.4,18.3c-2.6-3.6-6.1-5.8-11-5.8c-8.1,0-14.6,6.6-14.6,14.7c0,8.1,6.5,14.7,14.6,14.7
		c5.8,0,10.8-3.4,13.2-8.4c0,0-15,0-15,0V21.5H149V2.8h24.5v12h-12.8c0,0,0,6.6,0,6.6h12.8v12h-12.8v6.2h12.8v11.8
		c0.4,0-24.5,0-24.5,0V33.7c-2.9,13.3-13.6,20.2-25.6,20.2c-11.9,0-21.8-7-24.7-19.5l0,3.2v14h-12V23.1c0,0-7,6.1-7,28.5H67.3
		c0-22.3-7-28.5-7-28.5v28.5h-12V2.1c13.9,0,23,15.6,25.2,24.8h0c2.2-9.2,11.3-24.8,25.2-24.8v16.5l0,0C101,7.6,112,0.2,123.4,0.2
		c11.7,0,21.9,8.8,24.1,18.1H134.4z"/>
	<path class="st0" d="M199.9,51.5c-1.8-13.4-10.7-23-10.7-23v23h-12.8V2.8c2.8,0,13,5.5,23.4,20.5V2.8h12.5v48.7H199.9z"/>
	<path class="st0" d="M17.8,39.3c-0.3,1.4-2.5,8.9-3.3,12.3H1.9c1.6-6.2,4.9-16.7,8.3-23.7c3.3-7,7.5-14.7,14.4-19.9
		C27.9,5.6,34,0.9,45.5,2v49.6H33.4V39.3H17.8z M33.4,28V16.5c-3.9,2.7-8,7.7-10.5,11.5H33.4z"/>
	<path class="st0" d="M215.8,5c0-2.3,1.9-4.1,4.1-4.1c2.3,0,4.1,1.9,4.1,4.1c0,2.3-1.9,4.1-4.1,4.1C217.6,9.1,215.8,7.3,215.8,5
		 M223.3,5c0-1.8-1.5-3.3-3.4-3.3c-1.9,0-3.4,1.5-3.4,3.3c0,1.9,1.5,3.4,3.4,3.4C221.8,8.3,223.3,6.8,223.3,5 M222,7.2h-1l-1-1.9
		h-0.9v1.9h-0.9V2.8h2.2c0.4,0,0.9,0,1.2,0.2c0.4,0.3,0.5,0.7,0.5,1.2c0,0.8-0.4,1.1-1.2,1.2L222,7.2z M220.4,4.7
		c0.5,0,0.8-0.1,0.8-0.7c0-0.6-0.6-0.6-1.1-0.6h-1.1v1.3H220.4z"/>
</g>
</svg>
