<?xml version="1.0" encoding="utf-8"?>
<!-- Generator: Adobe Illustrator 19.1.0, SVG Export Plug-In . SVG Version: 6.00 Build 0)  -->
<svg version="1.1" id="Layer_1" xmlns="http://www.w3.org/2000/svg" xmlns:xlink="http://www.w3.org/1999/xlink" x="0px" y="0px"
	 viewBox="0 0 386 326" style="enable-background:new 0 0 386 326;" xml:space="preserve">
<style type="text/css">
	.st0{fill:#FFFFFF;}
	.st1{fill:#0071B9;}
	.st2{fill:#575756;}
	.st3{fill:#39B5E8;}
	.st4{fill:#0671B8;}
</style>
<g>
	<path class="st0" d="M382.7,169c-0.4,1.2-0.8,2.4-1.3,3.6c-10.1,42.9-50.1,120.5-61.5,144.9c-1.2,2.6-2.4,5.2-3.6,7.8H69.7
		c-0.2-0.4-0.4-0.8-0.5-1.2c-1.2-2.5-2.5-5.2-3.8-8.1c-2.2-4.7-4.4-9.4-6.5-14.2c-0.5-1.1-1-2.1-1.4-3.2
		c-11.6-25.3-23-50.6-33.6-76.3C13.7,198.8,5.3,178,3.3,169c-4.6-13.3,0.5-27.9,12-39c4-4.8,8.4-9.8,13.3-15
		c6.1-6.7,12.6-13.7,16.1-16.7l0.3,0.3c2.4-2.3,4.9-4.6,7.4-6.9c17.6-17.2,37.1-33.2,58.6-47.9c11.6-8.4,22.9-16.1,33.4-22.5
		C159.7,11,171.6,5.9,179.8,3.3c2.1-0.7,4-1.3,5.8-1.7c2.1-0.5,4.2-0.8,6.4-0.8c0.7,0,1,0,1,0v0c1.2,0,2.3,0.1,3.5,0.2
		c4.3,0.5,8.6,1.8,12.7,4c23.7,9.5,56.5,33.7,85.3,57.1c16.7,12.8,32.6,26.2,47.5,40.4c0.1,0.1,0.2,0.1,0.2,0.2
		c0,0,4.4,3.6,10.5,9.6c5.4,5.1,9.9,9.8,13.6,13.8C380.9,137.6,387.9,154,382.7,169"/>
	<g>
		<g>
			<path class="st1" d="M235.5,136.9c-2.2-3.1-5.3-5-9.5-5c-7,0-12.6,5.7-12.6,12.7c0,7,5.6,12.7,12.6,12.7c5,0,9.3-3,11.4-7.2
				c0,0-13,0-13,0v-10.4h23.7v-16.2h21.2v10.4h-11.1c0,0,0,5.7,0,5.7h11.1V150h-11.1v5.4h11.1v10.2c0.4,0-21.2,0-21.2,0v-15.5
				c-2.5,11.5-11.8,17.4-22.1,17.4c-10.3,0-18.8-6.1-21.3-16.9l0,2.8v12.1h-10.4V141c0,0-6,5.3-6,24.6h-10.7c0-19.3-6-24.6-6-24.6
				v24.6h-10.4v-42.8c12,0,19.9,13.5,21.8,21.4h0c1.9-8,9.8-21.4,21.8-21.4v14.2l0,0c2-9.4,11.5-15.8,21.3-15.8
				c10.1,0,19,7.6,20.8,15.7H235.5z"/>
			<path class="st1" d="M292.2,165.6c-1.5-11.6-9.2-19.9-9.2-19.9v19.9h-11v-42.1c2.5,0,11.2,4.7,20.3,17.7v-17.7h10.8v42.1H292.2z"
				/>
			<path class="st1" d="M134.7,155c-0.3,1.2-2.1,7.7-2.9,10.7H121c1.4-5.3,4.3-14.4,7.2-20.5c2.9-6.1,6.5-12.7,12.5-17.2
				c2.8-2.1,8.1-6.2,18-5.2v42.9h-10.5V155H134.7z M148.2,145.2v-10c-3.4,2.3-6.9,6.7-9.1,10H148.2z"/>
			<path class="st1" d="M305.9,125.3c0-2,1.6-3.6,3.6-3.6c2,0,3.6,1.6,3.6,3.6c0,2-1.6,3.6-3.6,3.6
				C307.5,128.9,305.9,127.3,305.9,125.3 M312.4,125.3c0-1.6-1.3-2.9-2.9-2.9c-1.6,0-2.9,1.3-2.9,2.9c0,1.6,1.3,2.9,2.9,2.9
				C311.1,128.3,312.4,127,312.4,125.3 M311.2,127.3h-0.9l-0.9-1.6h-0.8v1.6H308v-3.9h1.9c0.3,0,0.8,0,1,0.2c0.3,0.2,0.5,0.6,0.5,1
				c0,0.7-0.4,1-1.1,1L311.2,127.3z M309.9,125.1c0.4,0,0.7-0.1,0.7-0.6c0-0.5-0.5-0.5-0.9-0.5h-0.9v1.1H309.9z"/>
			<path class="st2" d="M130.5,175.1c0.9,0,1.8,0.1,2.7,0.3c0.9,0.2,1.6,0.5,2.3,0.9c0.7,0.4,1.2,1,1.6,1.7c0.4,0.7,0.6,1.6,0.6,2.6
				c0,0.6-0.1,1.2-0.3,1.7c-0.2,0.6-0.4,1.1-0.8,1.5c-0.3,0.4-0.7,0.8-1.2,1.1c-0.5,0.3-1,0.5-1.6,0.7v0.1c1.4,0.2,2.6,0.8,3.4,1.8
				c0.8,1,1.3,2.2,1.3,3.7c0,0.4,0,0.8-0.1,1.2c-0.1,0.4-0.2,0.9-0.4,1.4c-0.2,0.5-0.5,0.9-0.8,1.4c-0.4,0.5-0.8,0.9-1.4,1.2
				c-0.6,0.3-1.3,0.6-2.2,0.8c-0.9,0.2-1.9,0.3-3.1,0.3h-9.4v-22.3H130.5z M130.5,184.8c0.8,0,1.6-0.1,2.2-0.3
				c0.6-0.2,1.1-0.5,1.6-0.8c0.4-0.3,0.7-0.7,0.9-1.2c0.2-0.5,0.3-0.9,0.3-1.5c0-2.8-1.7-4.2-5-4.2h-7.3v8H130.5z M130.5,195.5
				c0.8,0,1.5-0.1,2.2-0.2c0.7-0.1,1.3-0.4,1.9-0.7c0.5-0.4,1-0.8,1.3-1.4c0.3-0.6,0.5-1.3,0.5-2.2c0-1.4-0.5-2.5-1.5-3.2
				c-1-0.7-2.4-1.1-4.3-1.1h-7.3v8.9H130.5z"/>
			<rect x="142" y="175.1" class="st2" width="2.1" height="22.3"/>
			<path class="st2" d="M148.2,181.8c0.4-1.4,1.1-2.6,2-3.7c0.9-1.1,2-1.9,3.3-2.6c1.3-0.6,2.8-1,4.6-1c1.7,0,3.3,0.3,4.6,1
				c1.3,0.6,2.4,1.5,3.3,2.6c0.9,1.1,1.5,2.3,2,3.7c0.4,1.4,0.7,2.9,0.7,4.4c0,1.5-0.2,3-0.7,4.4c-0.4,1.4-1.1,2.6-2,3.7
				c-0.9,1.1-2,1.9-3.3,2.5c-1.3,0.6-2.8,1-4.6,1c-1.7,0-3.3-0.3-4.6-1c-1.3-0.6-2.4-1.5-3.3-2.5c-0.9-1.1-1.5-2.3-2-3.7
				c-0.4-1.4-0.7-2.9-0.7-4.4C147.5,184.7,147.8,183.2,148.2,181.8 M150.1,189.8c0.3,1.2,0.8,2.2,1.5,3.2c0.7,0.9,1.5,1.7,2.6,2.2
				c1.1,0.6,2.3,0.8,3.8,0.8c1.5,0,2.7-0.3,3.8-0.8c1-0.6,1.9-1.3,2.6-2.2c0.7-0.9,1.2-2,1.5-3.2c0.3-1.2,0.5-2.4,0.5-3.6
				c0-1.2-0.2-2.4-0.5-3.6c-0.3-1.2-0.8-2.2-1.5-3.1c-0.7-0.9-1.5-1.7-2.6-2.2c-1-0.6-2.3-0.8-3.8-0.8c-1.5,0-2.7,0.3-3.8,0.8
				c-1.1,0.6-1.9,1.3-2.6,2.2c-0.7,0.9-1.2,2-1.5,3.1c-0.3,1.2-0.5,2.4-0.5,3.6C149.6,187.4,149.8,188.6,150.1,189.8"/>
			<path class="st2" d="M173.2,192.9c0.4,0.8,0.9,1.4,1.5,1.8c0.7,0.5,1.4,0.8,2.3,1c0.9,0.2,1.8,0.3,2.9,0.3c0.6,0,1.2-0.1,1.9-0.2
				c0.7-0.2,1.3-0.4,1.9-0.8c0.6-0.4,1.1-0.8,1.5-1.4c0.4-0.6,0.6-1.3,0.6-2.1c0-0.6-0.1-1.2-0.4-1.6c-0.3-0.5-0.6-0.8-1.1-1.2
				c-0.4-0.3-0.9-0.6-1.5-0.8c-0.5-0.2-1.1-0.4-1.6-0.5l-4.9-1.2c-0.6-0.2-1.3-0.4-1.9-0.6c-0.6-0.3-1.1-0.6-1.6-1
				c-0.5-0.4-0.8-0.9-1.1-1.5c-0.3-0.6-0.4-1.3-0.4-2.2c0-0.5,0.1-1.2,0.3-1.9c0.2-0.7,0.6-1.4,1.2-2.1c0.6-0.6,1.3-1.2,2.3-1.6
				c1-0.4,2.3-0.7,3.8-0.7c1.1,0,2.1,0.1,3.1,0.4c1,0.3,1.9,0.7,2.6,1.3c0.7,0.6,1.3,1.3,1.8,2.2c0.4,0.9,0.7,1.9,0.7,3H185
				c0-0.9-0.2-1.6-0.6-2.2c-0.3-0.6-0.8-1.2-1.3-1.6c-0.5-0.4-1.2-0.7-1.9-1c-0.7-0.2-1.5-0.3-2.2-0.3c-0.7,0-1.4,0.1-2.1,0.2
				c-0.7,0.2-1.3,0.4-1.8,0.7c-0.5,0.3-0.9,0.8-1.2,1.4c-0.3,0.6-0.5,1.3-0.5,2.1c0,0.5,0.1,1,0.3,1.4c0.2,0.4,0.4,0.7,0.7,1
				c0.3,0.3,0.7,0.5,1.1,0.7c0.4,0.2,0.8,0.3,1.3,0.4l5.4,1.3c0.8,0.2,1.5,0.5,2.2,0.8c0.7,0.3,1.3,0.7,1.8,1.1
				c0.5,0.4,0.9,1,1.2,1.6c0.3,0.6,0.4,1.4,0.4,2.3c0,0.2,0,0.6-0.1,1c-0.1,0.4-0.2,0.9-0.4,1.3c-0.2,0.5-0.5,0.9-0.8,1.4
				c-0.4,0.5-0.9,0.9-1.5,1.3c-0.6,0.4-1.4,0.7-2.3,0.9c-0.9,0.2-2,0.4-3.4,0.4c-1.3,0-2.5-0.2-3.6-0.5c-1.1-0.3-2.1-0.8-2.9-1.4
				c-0.8-0.6-1.4-1.4-1.8-2.4c-0.4-1-0.6-2.2-0.5-3.5h2.1C172.7,191.2,172.8,192.1,173.2,192.9"/>
			<rect x="191.4" y="175.1" class="st2" width="2.1" height="22.3"/>
			<polygon class="st2" points="201.2,175.1 208.8,194.6 216.4,175.1 219.5,175.1 219.5,197.3 217.4,197.3 217.4,178.1 217.4,178.1 
				209.8,197.3 207.8,197.3 200.2,178.1 200.2,178.1 200.2,197.3 198.1,197.3 198.1,175.1 			"/>
			<rect x="224.1" y="175.1" class="st2" width="2.1" height="22.3"/>
			<polygon class="st2" points="232.9,175.1 232.9,195.5 245.4,195.5 245.4,197.3 230.8,197.3 230.8,175.1 			"/>
			<path class="st2" d="M256.3,175.1l8.7,22.3h-2.3l-2.7-6.9H250l-2.7,6.9h-2.2l8.9-22.3H256.3z M259.3,188.6l-4.3-11.4l-4.4,11.4
				H259.3z"/>
			<path class="st2" d="M277.2,175.1c0.9,0,1.8,0.1,2.6,0.3c0.8,0.2,1.5,0.6,2.1,1c0.6,0.5,1.1,1.1,1.5,1.8c0.4,0.7,0.5,1.6,0.5,2.6
				c0,1.4-0.4,2.6-1.1,3.7c-0.7,1-1.8,1.7-3.2,2v0.1c0.7,0.1,1.3,0.3,1.8,0.6c0.5,0.3,0.9,0.6,1.2,1.1c0.3,0.4,0.5,0.9,0.7,1.5
				c0.1,0.6,0.2,1.2,0.3,1.9c0,0.4,0,0.8,0.1,1.4c0,0.5,0.1,1.1,0.1,1.6c0.1,0.6,0.2,1.1,0.3,1.6c0.1,0.5,0.3,0.9,0.5,1.1h-2.3
				c-0.1-0.2-0.2-0.5-0.3-0.8c-0.1-0.3-0.1-0.6-0.2-0.9c0-0.3-0.1-0.6-0.1-1c0-0.3,0-0.6-0.1-0.8c0-0.8-0.1-1.6-0.2-2.4
				c-0.1-0.8-0.3-1.5-0.6-2.1c-0.3-0.6-0.7-1.1-1.3-1.5c-0.6-0.4-1.4-0.5-2.3-0.5h-8v9.9H267v-22.3H277.2z M277,185.6
				c0.6,0,1.3-0.1,1.8-0.3c0.6-0.2,1.1-0.5,1.5-0.9c0.4-0.4,0.8-0.8,1-1.4c0.3-0.5,0.4-1.1,0.4-1.8c0-1.4-0.4-2.5-1.2-3.2
				c-0.8-0.8-2-1.2-3.6-1.2h-7.9v8.8H277z"/>
			<path class="st2" d="M289.2,192.9c0.4,0.8,0.9,1.4,1.5,1.8c0.7,0.5,1.4,0.8,2.3,1c0.9,0.2,1.8,0.3,2.9,0.3c0.6,0,1.2-0.1,1.9-0.2
				c0.7-0.2,1.3-0.4,1.9-0.8c0.6-0.4,1.1-0.8,1.5-1.4c0.4-0.6,0.6-1.3,0.6-2.1c0-0.6-0.1-1.2-0.4-1.6c-0.3-0.5-0.6-0.8-1.1-1.2
				c-0.4-0.3-0.9-0.6-1.5-0.8c-0.5-0.2-1.1-0.4-1.6-0.5l-4.9-1.2c-0.6-0.2-1.3-0.4-1.9-0.6c-0.6-0.3-1.1-0.6-1.6-1
				c-0.5-0.4-0.8-0.9-1.1-1.5c-0.3-0.6-0.4-1.3-0.4-2.2c0-0.5,0.1-1.2,0.3-1.9c0.2-0.7,0.6-1.4,1.2-2.1c0.6-0.6,1.3-1.2,2.3-1.6
				c1-0.4,2.3-0.7,3.8-0.7c1.1,0,2.1,0.1,3.1,0.4c1,0.3,1.9,0.7,2.6,1.3c0.7,0.6,1.3,1.3,1.8,2.2c0.4,0.9,0.7,1.9,0.7,3H301
				c0-0.9-0.2-1.6-0.6-2.2c-0.3-0.6-0.8-1.2-1.3-1.6s-1.2-0.7-1.9-1c-0.7-0.2-1.5-0.3-2.2-0.3c-0.7,0-1.4,0.1-2.1,0.2
				c-0.7,0.2-1.3,0.4-1.8,0.7c-0.5,0.3-0.9,0.8-1.2,1.4c-0.3,0.6-0.5,1.3-0.5,2.1c0,0.5,0.1,1,0.3,1.4c0.2,0.4,0.4,0.7,0.7,1
				c0.3,0.3,0.7,0.5,1.1,0.7c0.4,0.2,0.8,0.3,1.3,0.4l5.4,1.3c0.8,0.2,1.5,0.5,2.2,0.8c0.7,0.3,1.3,0.7,1.8,1.1
				c0.5,0.4,0.9,1,1.2,1.6c0.3,0.6,0.4,1.4,0.4,2.3c0,0.2,0,0.6-0.1,1c-0.1,0.4-0.2,0.9-0.4,1.3c-0.2,0.5-0.5,0.9-0.8,1.4
				c-0.4,0.5-0.9,0.9-1.5,1.3c-0.6,0.4-1.4,0.7-2.3,0.9c-0.9,0.2-2,0.4-3.4,0.4c-1.3,0-2.5-0.2-3.6-0.5c-1.1-0.3-2.1-0.8-2.9-1.4
				c-0.8-0.6-1.4-1.4-1.8-2.4c-0.4-1-0.6-2.2-0.5-3.5h2.1C288.7,191.2,288.9,192.1,289.2,192.9"/>
		</g>
		<g>
			<path class="st3" d="M245,205.5c0-0.5-0.1-1.1-0.1-1.6c-0.4,1-0.8,2-1.3,3c-0.5,1-1.1,1.9-1.9,2.7c-3.3,3.7-7.5,5.9-12.2,7.1
				c-1.6,0.4-1.5,0.4-1.4-1.2c0.1-2.2,0.2-4.4-0.3-6.6c-0.1,0.1-0.1,0.3-0.1,0.4c-0.2,2.5-0.6,5-1.5,7.5c-0.1,0.4-0.3,0.6-0.8,0.6
				c-2.8,0.1-5.5-0.3-8.2-0.9c-4.1-1-8.2-2.3-12.4-3c-4.9-0.8-9.7-0.4-14.3,1.8c-3,1.4-5.7,3.5-8.1,5.7c-3.2,3-6.6,5.9-10.4,8.1
				c-0.4,0.3-0.8,0.3-1.2,0.1c-1.5-0.7-3-1.4-4.4-2.2c-4.8-2.6-9.5-5.4-14.4-7.8c-6.5-3.1-13.2-5-20.4-5.2
				c-5.1-0.2-10.3-0.5-15.4-1.1c-0.5-0.1-0.8-0.2-1-0.7c-1.6-4.1-2.6-8.4-3.4-12.8c-0.4-2.5-0.7-5-1.8-7.4c-1.5-3.3-3.9-5.8-6.5-8.2
				c-2.5-2.2-5.3-4.3-7.8-6.6c-0.5-0.4-0.5-0.7,0-1.1c2.9-2.8,5.9-5.5,8.6-8.5c3-3.4,5.8-6.9,7.5-11.2c1.1-2.9,2.1-5.9,1.6-9.2
				c-0.2,1.1-0.2,2.2-0.4,3.2c-0.6,3.8-2.1,7.1-4.3,10.2c-2.9,4.1-6.5,7.6-10.3,10.9c-1.3,1.2-2.6,2.3-3.9,3.5
				c-0.4,0.4-0.7,0.4-1.1,0c-0.8-0.6-1.4-1.4-2-2.2c-1.4-2-2.7-4-3.4-6.3c0-0.1,0-0.2,0-0.3c-0.4-1.7-0.4-3.3-0.1-4.7
				c0.3-1.4,1-2.7,1.9-3.9c0.6-0.8,1.4-1.6,2.2-2.3c3.4-2.9,7.4-4.9,11.5-6.6c0.6-0.2,1.2-0.5,1.8-0.7c0.5-0.7,0.6-1.6,0.7-2.4
				c0.4-2.8,0.9-5.6,1.8-8.4c-6.6,1.9-13.1,4.2-19.1,7.7c-2.8,1.6-5.1,3.8-6.9,6.5c-2.3,3.5-3.3,7.4-2.6,11.6c0.5,2.9,2,5.4,4,7.5
				c1.8,1.6,3.6,3.1,5.8,4.2c1.1,0.6,2.2,1,3.3,1.4c0.6,0.2,0.6,0.4,0.2,0.9c-1.2,1.5-2.3,3.1-3.3,4.8c-1.8,3.1-3,6.5-3.3,10.1
				c-0.3,3.4,0.2,6.6,2.3,9.4c1.6,2.2,3.7,3.7,6,5.1c5.4,3.2,11.3,5.3,17.5,6.4c0.6,0.1,1.3,0.2,1.9,0.4c-5.6,0.3-11.1,0.3-16.7-0.7
				c0,0.1,0.1,0.3,0.1,0.4c2.9,7.2,6.8,13.7,12.1,19.4c10.9,11.7,24.3,15.1,39.6,11.3c3-0.7,5.9-2,8.8-3.2c0.8-0.5,1.7-1,2.5-1.6
				c3.1-1.9,5.9-4.1,8.8-6.3c2.4-1.8,2.4-1.8,5.2-0.7c4.2,1.6,8.4,3.1,12.8,4c2.8,0.6,5.5,1.1,8.3,1.3c2.8,0.2,5.6,0.4,8.4,0.1
				c6.4-0.6,12.3-2.4,17-7.2c3.2-3.2,5.3-7.1,6.7-11.5c0.2-0.5,0.3-1,0.5-1.5c0.1,4.1,0.1,8.2-1.1,12.1c1-0.2,1.9-0.4,2.8-0.6
				c0.9-0.3,1.9-0.6,2.8-0.9c5.6-2.1,9.6-5.9,11.5-11.7C245,212.7,245.2,209.1,245,205.5 M95.4,206.1c-1.3-0.8-2.4-1.6-3.5-2.6
				c-3.2-2.9-5-6.4-4.7-10.8c0.1-2.6,0.9-5,2-7.3c0.7-1.4,1.4-2.8,2.3-4.2c0.3-0.5,0.5-0.5,0.9,0c1.4,1.9,2.1,4.2,2.5,6.5
				c0.6,3.1,0.6,6.2,0.4,9.4C95.2,200,95,203,95.4,206.1 M167.2,231.6c-3.3,1.2-6.6,2.7-10,3.4c-0.5,0.1-1,0.2-1.5,0.4
				c-1.1,0.3-2.2,0.5-3.3,0.7c-0.5,0.1-0.9,0.1-1.4,0.2c-2.5,0.3-4.8,0.3-7.2,0c-3.9-0.5-7.6-1.8-11.2-3.8c-2.9-1.6-5.8-3.2-8.4-5.4
				c-1.7-1.4-3.1-3-4.2-5c-0.7-1.4-1.5-2.9-2.3-4.3c-0.8-1.2-1.3-2.6-1.9-3.9c-0.2-0.4,0.2-0.3,0.3-0.3c1.7,0.4,3.4,0.5,5.2,0.7
				c2.2,0.3,4.5,0.4,6.8,0.6c4.3,0.3,8.6,0.4,12.8,1.4c3.1,0.7,6,1.9,8.8,3.2c6.3,2.9,12.2,6.4,18.4,9.4c0.8,0.4,1.5,0.8,2.4,1.2
				C169.5,230.7,168.3,231.1,167.2,231.6 M217.7,230.7c-3.7,2.1-7.7,3.3-11.9,4c-9.3,1.5-18.3,0.3-27.2-2.6c-0.1,0-0.1,0-0.2-0.1
				c0,0-0.1-0.1-0.1-0.1c3-1,6-1.7,9.1-2.1c6.3-1,12.5-0.7,18.8,0c3.9,0.5,7.9,0.6,11.8,0.6C218.1,230.7,217.9,230.7,217.7,230.7"/>
			<path class="st4" d="M227.9,217.4c-0.2,0.5-0.4,1-0.5,1.5c-1.4,4.3-3.5,8.2-6.7,11.5c-4.6,4.7-10.6,6.6-17,7.2
				c-2.8,0.3-5.6,0.1-8.4-0.1c-2.8-0.2-5.6-0.7-8.3-1.3c-4.4-0.9-8.6-2.4-12.8-4c-2.8-1.1-2.8-1.1-5.2,0.7c-2.9,2.1-5.7,4.4-8.8,6.3
				c-0.8,0.5-1.7,1-2.5,1.6c0.2,0.2,0.5,0.4,0.7,0.5c3.7,2.4,7.6,4.4,11.6,6.2c6.5,2.8,13.1,5.1,20.2,5.5c6.5,0.4,12.8-0.6,18.6-3.7
				c3.1-1.7,5.9-3.6,8.4-5.9c4.1-3.8,7.3-8.4,9.7-13.8C228,225.5,228,221.4,227.9,217.4"/>
			<path class="st4" d="M113.5,213.4c-0.6-0.2-1.3-0.3-1.9-0.4c-6.2-1.1-12-3.1-17.5-6.4c-2.3-1.4-4.4-2.9-6-5.1
				c-2-2.8-2.6-6-2.3-9.4c0.3-3.6,1.6-6.9,3.3-10.1c1-1.7,2.1-3.3,3.3-4.8c0.4-0.4,0.4-0.7-0.2-0.9c-1.1-0.4-2.2-0.9-3.3-1.4
				c-2.1-1.1-4-2.6-5.8-4.2c-0.1,0.1-0.2,0.2-0.3,0.3c-5.6,5.9-9,12.9-9.5,21.2c-0.4,6.1,1.6,11.2,7,14.6c2.8,1.8,5.8,2.9,9,3.9
				c2.5,0.7,5,1.4,7.5,2.1C102.4,213.7,108,213.7,113.5,213.4"/>
			<path class="st4" d="M105.3,148.1c0,0.6-0.3,1.1-0.5,1.6c-1.6,3.7-4.2,6.7-7.1,9.4c-2.8,2.7-5.9,5-9.2,7
				c-0.2,0.1-0.4,0.2-0.5,0.2c0,0.1,0,0.2,0,0.3c0.7,2.3,2,4.3,3.4,6.3c0.6,0.8,1.2,1.6,2,2.2c0.4,0.3,0.7,0.4,1.1,0
				c1.2-1.2,2.6-2.4,3.9-3.5c3.7-3.3,7.4-6.8,10.3-10.9c2.2-3.1,3.7-6.5,4.3-10.2c0.2-1.1,0.1-2.2,0.4-3.2c0-0.4,0-0.8,0-1.2
				c-0.1-0.1-0.1-0.3-0.1-0.5c-0.1-1.8-0.3-3.7-0.3-5.5c0-1.4,0.1-2.8,0.5-4.1c0.1-0.4,0.2-0.8,0.3-1.2c0.4-1.2,1-2.3,1.7-3.3
				c2-3,4.7-5.4,7.7-7.4c0.8-0.6,1.7-1.1,2.7-1.7c-0.6-0.1-1,0.1-1.4,0.1c-5,0.8-9.2,3-12.4,7c-2,2.4-3.2,5.2-4.2,8.1
				c-0.9,2.7-1.4,5.5-1.8,8.4C105.9,146.5,105.8,147.4,105.3,148.1"/>
			<path class="st3" d="M113,140c0,1.8,0.2,3.7,0.3,5.5c0,0.2,0,0.4,0.1,0.5c0.9-0.6,1.5-1.5,2.1-2.4c1.4-2.3,2-4.8,2.4-7.3
				c0.2-1,0.3-2,0.3-3.1c-0.9,1.3-2.1,1.9-3.3,2.4c-0.4,0.1-0.9,0.3-1.3,0.4C113.1,137.2,113,138.6,113,140"/>
			<path class="st4" d="M149.8,219.4c-2.8-1.3-5.8-2.5-8.8-3.2c-4.2-1-8.5-1.1-12.8-1.4c-2.3-0.1-4.5-0.3-6.8-0.6
				c-1.7-0.2-3.5-0.4-5.2-0.7c-0.2,0-0.6-0.1-0.3,0.3c0.7,1.3,1.2,2.6,1.9,3.9c2.8,0.6,5.4,1.4,8.1,2.3c7.4,2.5,13.8,6.4,19.7,11.5
				c1.6,1.4,3.3,2.8,5,4.3c0.1,0.1,0.3,0.2,0.4,0.4c0.5,0,0.9-0.1,1.4-0.2c1.1-0.2,2.2-0.4,3.3-0.7c0.5-0.1,1-0.2,1.5-0.4
				c3.5-0.8,6.7-2.2,10-3.4c1.2-0.4,2.3-0.9,3.4-1.6c-0.9-0.4-1.6-0.8-2.4-1.2C162.1,225.8,156.1,222.3,149.8,219.4"/>
		</g>
	</g>
</g>
</svg>
