<?xml version="1.0" encoding="utf-8"?>
<!-- Generator: Adobe Illustrator 19.1.0, SVG Export Plug-In . SVG Version: 6.00 Build 0)  -->
<svg version="1.1" id="Layer_1" xmlns="http://www.w3.org/2000/svg" xmlns:xlink="http://www.w3.org/1999/xlink" x="0px" y="0px"
	 viewBox="0 0 590 500" style="enable-background:new 0 0 590 500;" xml:space="preserve">
<style type="text/css">
	.st0{fill:#FFFFFF;}
	.st1{fill:#0071B9;}
	.st2{fill:#575756;}
	.st3{fill:#39B5E8;}
	.st4{fill:#0671B8;}
</style>
<g>
	<path class="st0" d="M579,241.1c-0.6-1.8-1.2-3.6-1.9-5.4c-15.1-64.2-75-180.4-92.1-216.9c-1.8-3.9-3.6-7.8-5.4-11.7H110.3
		c-0.3,0.6-0.5,1.1-0.8,1.7c-1.9,3.8-3.8,7.8-5.6,12.2c-3.3,7.1-6.5,14.1-9.7,21.2c-0.8,1.6-1.5,3.2-2.2,4.7
		c-17.4,37.8-34.4,75.8-50.3,114.2c-15.1,35.1-27.7,66.3-30.8,79.8c-6.8,20,0.8,41.8,18,58.5c5.9,7.2,12.6,14.7,19.9,22.5
		c9.1,10,18.9,20.6,24.1,25l0.4-0.5c3.6,3.5,7.3,6.9,11.1,10.4c26.4,25.8,55.6,49.7,87.8,71.7c17.3,12.6,34.3,24.1,50,33.7
		c22.8,15.3,40.6,23,52.9,26.8c3.1,1.1,6,1.9,8.6,2.5c3.2,0.7,6.4,1.2,9.6,1.3c1,0.1,1.6,0,1.6,0v0c1.7,0,3.5-0.1,5.2-0.3
		c6.5-0.7,12.9-2.7,19-6c35.5-14.2,84.7-50.5,127.7-85.5c25-19.2,48.7-39.3,71.1-60.5c0.1-0.1,0.2-0.2,0.3-0.3
		c0,0,6.6-5.4,15.8-14.3c8.1-7.7,14.8-14.6,20.3-20.7C576.3,288,586.7,263.4,579,241.1"/>
	<g>
		<path class="st1" d="M369.2,146.6c-3.9-5.5-9.3-8.8-16.6-8.8c-12.2,0-22.1,10-22.1,22.3c0,12.3,9.9,22.3,22.1,22.3
			c8.8,0,16.4-5.2,20-12.7c0,0-22.7,0-22.7,0v-18.3h41.6v-28.3h37.1v18.3h-19.5c0,0-0.1,10.1,0,10.1h19.5v18.3h-19.5v9.4h19.5V197
			c0.6,0-37.2,0-37.2,0v-27.1c-4.4,20.2-20.6,30.6-38.8,30.6c-18.1,0-33.1-10.7-37.4-29.6l0,4.9V197h-18.3v-43.2
			c0,0-10.6,9.3-10.6,43.2h-18.8c0-33.9-10.6-43.2-10.6-43.2V197h-18.3v-75c21,0,34.9,23.6,38.2,37.6h0c3.3-14,17.2-37.6,38.2-37.6
			v25l0,0c3.5-16.6,20.2-27.8,37.4-27.8c17.7,0,33.3,13.3,36.5,27.5H369.2z"/>
		<path class="st1" d="M468.6,197c-2.7-20.4-16.2-34.9-16.2-34.9v34.9h-19.4v-73.8c4.3,0,19.7,8.3,35.5,31.1v-31.1h18.9V197H468.6z"
			/>
		<path class="st1" d="M192.4,178.4c-0.5,2.1-3.8,13.5-5.1,18.7h-18.9c2.5-9.3,7.5-25.3,12.6-36c5.1-10.6,11.4-22.3,21.9-30.2
			c4.8-3.6,14.2-10.8,31.6-9.2V197h-18.4v-18.6H192.4z M216.1,161.2v-17.5c-5.9,4.1-12.2,11.7-16,17.5H216.1z"/>
		<path class="st1" d="M492.6,126.4c0-3.4,2.8-6.3,6.3-6.3c3.5,0,6.3,2.8,6.3,6.3c0,3.5-2.8,6.3-6.3,6.3
			C495.4,132.6,492.6,129.8,492.6,126.4 M504,126.4c0-2.8-2.3-5.1-5.1-5.1c-2.8,0-5.1,2.3-5.1,5.1c0,2.8,2.3,5.1,5.1,5.1
			C501.7,131.5,504,129.2,504,126.4 M502,129.8h-1.6l-1.5-2.9h-1.3v2.9h-1.3V123h3.3c0.6,0,1.3,0,1.8,0.3c0.6,0.4,0.8,1,0.8,1.7
			c0,1.2-0.7,1.7-1.9,1.8L502,129.8z M499.6,125.9c0.7,0,1.3-0.2,1.3-1c0-0.9-1-0.9-1.6-0.9h-1.7v1.9H499.6z"/>
		<path class="st2" d="M185,213.6c1.6,0,3.2,0.2,4.7,0.5c1.5,0.3,2.8,0.8,4,1.6c1.1,0.7,2.1,1.7,2.7,3c0.7,1.2,1,2.7,1,4.6
			c0,1-0.2,2-0.5,3c-0.3,1-0.8,1.8-1.4,2.6c-0.6,0.8-1.3,1.4-2.1,2c-0.8,0.5-1.7,0.9-2.7,1.2v0.1c2.5,0.3,4.5,1.4,6,3.1
			c1.5,1.7,2.2,3.9,2.2,6.4c0,0.6-0.1,1.3-0.2,2.1c-0.1,0.8-0.3,1.6-0.7,2.4c-0.3,0.8-0.8,1.6-1.4,2.4c-0.6,0.8-1.4,1.5-2.5,2.1
			c-1,0.6-2.3,1.1-3.8,1.5c-1.5,0.4-3.3,0.6-5.4,0.6h-16.4v-39.1H185z M185,230.7c1.5,0,2.8-0.2,3.9-0.5c1.1-0.3,2-0.8,2.7-1.4
			c0.7-0.6,1.3-1.3,1.6-2.1c0.4-0.8,0.5-1.7,0.5-2.6c0-4.9-2.9-7.3-8.8-7.3h-12.7v14H185z M185,249.5c1.4,0,2.7-0.1,3.9-0.4
			c1.2-0.2,2.3-0.7,3.3-1.3c0.9-0.6,1.7-1.5,2.2-2.5c0.5-1,0.8-2.3,0.8-3.9c0-2.5-0.9-4.4-2.6-5.7c-1.8-1.3-4.3-1.9-7.6-1.9h-12.7
			v15.6H185z"/>
		<rect x="205.1" y="213.6" class="st2" width="3.7" height="39.1"/>
		<path class="st2" d="M216,225.4c0.8-2.4,1.9-4.6,3.4-6.5c1.5-1.9,3.4-3.4,5.7-4.5c2.3-1.1,5-1.7,8-1.7s5.7,0.6,8,1.7
			c2.3,1.1,4.2,2.6,5.7,4.5c1.5,1.9,2.7,4,3.4,6.5c0.8,2.4,1.1,5,1.1,7.7c0,2.7-0.4,5.3-1.1,7.7c-0.8,2.4-1.9,4.6-3.4,6.5
			c-1.5,1.9-3.4,3.3-5.7,4.5c-2.3,1.1-5,1.7-8,1.7s-5.7-0.6-8-1.7c-2.3-1.1-4.2-2.6-5.7-4.5c-1.5-1.9-2.7-4-3.4-6.5
			c-0.8-2.4-1.1-5-1.1-7.7C214.9,230.4,215.3,227.9,216,225.4 M219.4,239.4c0.6,2.1,1.4,3.9,2.6,5.5c1.2,1.6,2.7,2.9,4.5,3.9
			c1.8,1,4.1,1.5,6.6,1.5c2.6,0,4.8-0.5,6.6-1.5c1.8-1,3.3-2.3,4.5-3.9c1.2-1.6,2-3.5,2.6-5.5c0.6-2.1,0.8-4.1,0.8-6.3
			c0-2.2-0.3-4.2-0.8-6.3c-0.6-2-1.4-3.9-2.6-5.5c-1.2-1.6-2.7-2.9-4.5-3.9c-1.8-1-4-1.5-6.6-1.5c-2.6,0-4.8,0.5-6.6,1.5
			c-1.9,1-3.4,2.3-4.5,3.9c-1.2,1.6-2,3.5-2.6,5.5c-0.6,2-0.8,4.1-0.8,6.3C218.6,235.2,218.9,237.3,219.4,239.4"/>
		<path class="st2" d="M259.9,244.8c0.7,1.4,1.6,2.4,2.7,3.2c1.1,0.8,2.5,1.4,4.1,1.7c1.6,0.3,3.2,0.5,5,0.5c1,0,2.1-0.1,3.3-0.4
			c1.2-0.3,2.3-0.8,3.3-1.4c1-0.6,1.9-1.5,2.6-2.5c0.7-1,1-2.2,1-3.6c0-1.1-0.2-2-0.7-2.8c-0.5-0.8-1.1-1.5-1.9-2
			c-0.8-0.5-1.6-1-2.6-1.3c-0.9-0.3-1.9-0.6-2.8-0.8l-8.6-2.1c-1.1-0.3-2.2-0.7-3.3-1.1c-1.1-0.4-2-1-2.8-1.8
			c-0.8-0.7-1.4-1.6-1.9-2.7c-0.5-1.1-0.7-2.4-0.7-3.9c0-1,0.2-2.1,0.5-3.3c0.4-1.3,1-2.5,2-3.6c1-1.1,2.4-2.1,4.1-2.9
			c1.7-0.8,4-1.2,6.7-1.2c1.9,0,3.8,0.3,5.5,0.8c1.7,0.5,3.3,1.3,4.6,2.3c1.3,1,2.3,2.3,3.1,3.8c0.8,1.5,1.2,3.3,1.2,5.3h-3.7
			c-0.1-1.5-0.4-2.8-1-3.9c-0.6-1.1-1.4-2-2.3-2.8c-1-0.7-2.1-1.3-3.3-1.7c-1.3-0.4-2.6-0.6-3.9-0.6c-1.3,0-2.5,0.1-3.7,0.4
			c-1.2,0.3-2.2,0.7-3.1,1.3c-0.9,0.6-1.6,1.4-2.1,2.4c-0.5,1-0.8,2.2-0.8,3.7c0,0.9,0.2,1.7,0.5,2.4c0.3,0.7,0.7,1.3,1.3,1.7
			c0.5,0.5,1.2,0.9,1.9,1.1c0.7,0.3,1.5,0.5,2.3,0.7l9.5,2.4c1.4,0.4,2.7,0.8,3.9,1.3c1.2,0.5,2.3,1.2,3.2,2
			c0.9,0.8,1.6,1.7,2.2,2.9c0.5,1.1,0.8,2.5,0.8,4.1c0,0.4,0,1-0.1,1.8c-0.1,0.7-0.3,1.5-0.7,2.3c-0.3,0.8-0.8,1.7-1.5,2.5
			c-0.6,0.8-1.5,1.6-2.6,2.3c-1.1,0.7-2.5,1.2-4.1,1.6c-1.6,0.4-3.6,0.6-5.9,0.6c-2.3,0-4.4-0.3-6.4-0.8c-2-0.5-3.6-1.3-5-2.4
			c-1.4-1.1-2.4-2.5-3.2-4.2c-0.7-1.7-1.1-3.8-1-6.2h3.7C259,241.8,259.3,243.5,259.9,244.8"/>
		<rect x="291.8" y="213.6" class="st2" width="3.7" height="39.1"/>
		<polygon class="st2" points="308.9,213.6 322.4,247.9 335.8,213.6 341.2,213.6 341.2,252.7 337.5,252.7 337.5,218.9 337.4,218.9 
			324.1,252.7 320.6,252.7 307.3,218.9 307.2,218.9 307.2,252.7 303.5,252.7 303.5,213.6 		"/>
		<rect x="349.2" y="213.6" class="st2" width="3.7" height="39.1"/>
		<polygon class="st2" points="364.7,213.6 364.7,249.5 386.5,249.5 386.5,252.7 361,252.7 361,213.6 		"/>
		<path class="st2" d="M405.7,213.6l15.2,39.1h-4l-4.7-12.2h-17.7l-4.7,12.2H386l15.6-39.1H405.7z M411,237.3l-7.5-20l-7.8,20H411z"
			/>
		<path class="st2" d="M442.3,213.6c1.6,0,3.1,0.2,4.5,0.6c1.4,0.4,2.7,1,3.8,1.8c1.1,0.8,1.9,1.9,2.6,3.2c0.6,1.3,1,2.8,1,4.6
			c0,2.5-0.6,4.6-1.9,6.5c-1.3,1.8-3.2,3-5.7,3.5v0.1c1.3,0.2,2.3,0.5,3.2,1c0.8,0.5,1.5,1.1,2,1.9c0.5,0.8,0.9,1.7,1.1,2.7
			c0.2,1,0.4,2.1,0.5,3.3c0,0.7,0.1,1.5,0.1,2.4c0,0.9,0.1,1.9,0.2,2.9c0.1,1,0.3,1.9,0.5,2.7c0.2,0.9,0.6,1.5,1,2H451
			c-0.2-0.4-0.4-0.8-0.5-1.3c-0.1-0.5-0.2-1.1-0.3-1.6c-0.1-0.6-0.1-1.1-0.1-1.7c0-0.5-0.1-1-0.1-1.4c-0.1-1.4-0.2-2.8-0.4-4.1
			c-0.2-1.4-0.5-2.6-1-3.7c-0.5-1.1-1.3-1.9-2.3-2.6c-1-0.7-2.4-0.9-4.1-0.9h-14v17.3h-3.7v-39.1H442.3z M442,232.1
			c1.1,0,2.2-0.2,3.2-0.5c1-0.3,1.9-0.9,2.7-1.5c0.8-0.7,1.4-1.5,1.8-2.4c0.5-0.9,0.7-2,0.7-3.2c0-2.4-0.7-4.3-2.1-5.7
			c-1.4-1.4-3.5-2.1-6.3-2.1h-13.8v15.4H442z"/>
		<path class="st2" d="M463.4,244.8c0.7,1.4,1.6,2.4,2.7,3.2c1.1,0.8,2.5,1.4,4.1,1.7c1.6,0.3,3.2,0.5,5,0.5c1,0,2.1-0.1,3.3-0.4
			c1.2-0.3,2.3-0.8,3.3-1.4c1-0.6,1.9-1.5,2.6-2.5c0.7-1,1-2.2,1-3.6c0-1.1-0.2-2-0.7-2.8c-0.5-0.8-1.1-1.5-1.9-2
			c-0.8-0.5-1.6-1-2.6-1.3c-0.9-0.3-1.9-0.6-2.8-0.8l-8.7-2.1c-1.1-0.3-2.2-0.7-3.3-1.1c-1.1-0.4-2-1-2.8-1.8
			c-0.8-0.7-1.4-1.6-1.9-2.7c-0.5-1.1-0.7-2.4-0.7-3.9c0-1,0.2-2.1,0.5-3.3c0.4-1.3,1-2.5,2-3.6c1-1.1,2.4-2.1,4.1-2.9
			c1.7-0.8,4-1.2,6.7-1.2c1.9,0,3.8,0.3,5.5,0.8c1.7,0.5,3.3,1.3,4.6,2.3c1.3,1,2.3,2.3,3.1,3.8c0.8,1.5,1.2,3.3,1.2,5.3h-3.7
			c-0.1-1.5-0.4-2.8-1-3.9c-0.6-1.1-1.4-2-2.3-2.8s-2.1-1.3-3.3-1.7c-1.3-0.4-2.6-0.6-3.9-0.6c-1.3,0-2.5,0.1-3.7,0.4
			c-1.2,0.3-2.2,0.7-3.1,1.3c-0.9,0.6-1.6,1.4-2.1,2.4c-0.5,1-0.8,2.2-0.8,3.7c0,0.9,0.2,1.7,0.5,2.4c0.3,0.7,0.7,1.3,1.3,1.7
			c0.5,0.5,1.2,0.9,1.9,1.1c0.7,0.3,1.5,0.5,2.3,0.7l9.5,2.4c1.4,0.4,2.7,0.8,3.9,1.3c1.2,0.5,2.3,1.2,3.2,2
			c0.9,0.8,1.7,1.7,2.2,2.9c0.5,1.1,0.8,2.5,0.8,4.1c0,0.4,0,1-0.1,1.8c-0.1,0.7-0.3,1.5-0.7,2.3c-0.3,0.8-0.8,1.7-1.5,2.5
			c-0.6,0.8-1.5,1.6-2.6,2.3c-1.1,0.7-2.5,1.2-4.1,1.6c-1.6,0.4-3.6,0.6-5.9,0.6c-2.3,0-4.4-0.3-6.4-0.8c-2-0.5-3.6-1.3-5-2.4
			s-2.4-2.5-3.2-4.2c-0.7-1.7-1.1-3.8-1-6.2h3.7C462.5,241.8,462.8,243.5,463.4,244.8"/>
	</g>
	<g>
		<path class="st3" d="M385.8,267c-0.1-1-0.1-1.9-0.2-2.9c-0.7,1.8-1.4,3.5-2.3,5.2c-0.9,1.7-2,3.3-3.3,4.8
			c-5.7,6.6-13.1,10.4-21.4,12.5c-2.7,0.7-2.7,0.7-2.5-2.2c0.2-3.9,0.3-7.8-0.5-11.7c-0.1,0.3-0.1,0.5-0.2,0.8
			c-0.4,4.4-1,8.9-2.6,13.1c-0.3,0.7-0.5,1-1.4,1c-4.8,0.1-9.6-0.5-14.3-1.6c-7.3-1.8-14.4-4.1-21.8-5.2c-8.6-1.3-17-0.7-25,3.1
			c-5.3,2.5-9.9,6.1-14.2,10.1c-5.6,5.3-11.5,10.4-18.3,14.3c-0.8,0.4-1.4,0.5-2.1,0.1c-2.6-1.2-5.2-2.5-7.7-3.9
			c-8.4-4.6-16.6-9.5-25.3-13.6c-11.3-5.5-23.2-8.7-35.8-9.1c-9-0.3-18-0.8-27-2c-0.9-0.1-1.3-0.4-1.7-1.3c-2.8-7.2-4.6-14.7-6-22.4
			c-0.8-4.4-1.3-8.8-3.2-12.9c-2.6-5.7-6.8-10.2-11.4-14.4c-4.5-3.9-9.2-7.5-13.6-11.5c-0.9-0.8-0.8-1.2,0-2
			c5-4.9,10.3-9.6,15.1-14.8c5.3-5.9,10.2-12.1,13.1-19.6c1.9-5.2,3.6-10.4,2.8-16.1c-0.4,1.9-0.4,3.8-0.7,5.7
			c-1.1,6.6-3.7,12.5-7.6,18c-5.1,7.2-11.5,13.3-18,19.1c-2.3,2-4.6,4.1-6.8,6.2c-0.8,0.7-1.3,0.7-2,0.1c-1.4-1.1-2.5-2.5-3.5-3.9
			c-2.4-3.4-4.7-6.9-6-11c-0.1-0.2-0.1-0.3-0.1-0.5c-0.7-3-0.7-5.7-0.2-8.2c0.6-2.5,1.8-4.8,3.4-6.9c1.1-1.4,2.4-2.7,3.9-4
			c6-5.2,12.9-8.6,20.2-11.5c1.1-0.4,2.1-0.8,3.2-1.2c0.8-1.3,1-2.8,1.2-4.2c0.7-5,1.7-9.9,3.2-14.7c-11.6,3.4-23,7.3-33.5,13.5
			c-4.9,2.9-9,6.7-12.1,11.5c-4,6.2-5.9,12.9-4.6,20.3c0.9,5.2,3.5,9.4,7,13.2c3.1,2.9,6.4,5.5,10.1,7.4c1.9,1,3.8,1.8,5.8,2.5
			c1,0.4,1,0.7,0.4,1.5c-2.2,2.6-4.1,5.4-5.8,8.4c-3.1,5.5-5.2,11.3-5.8,17.7c-0.6,5.9,0.4,11.5,4,16.4c2.8,3.8,6.5,6.6,10.5,9
			c9.5,5.7,19.8,9.2,30.6,11.2c1.1,0.2,2.2,0.4,3.3,0.8c-9.8,0.5-19.5,0.5-29.2-1.3c0.1,0.2,0.1,0.5,0.2,0.7
			c5,12.6,12,24.1,21.3,34.1c19.2,20.5,42.6,26.4,69.5,19.8c5.3-1.3,10.4-3.4,15.4-5.5c1.5-0.9,3-1.8,4.5-2.7
			c5.4-3.3,10.4-7.2,15.5-11c4.3-3.1,4.3-3.2,9.2-1.3c7.3,2.8,14.8,5.4,22.5,7c4.8,1,9.7,1.9,14.6,2.3c4.9,0.4,9.9,0.6,14.8,0.2
			c11.2-1,21.6-4.3,29.8-12.6c5.6-5.7,9.3-12.5,11.7-20.1c0.3-0.9,0.6-1.8,1-2.7c0.1,7.2,0.2,14.3-2,21.3c1.7-0.3,3.4-0.6,5-1.1
			c1.6-0.4,3.3-1,4.9-1.6c9.9-3.7,16.9-10.3,20.2-20.6C385.9,279.6,386.2,273.3,385.8,267 M123.5,268c-2.3-1.4-4.3-2.8-6.1-4.5
			c-5.6-5.1-8.7-11.3-8.3-19c0.2-4.5,1.6-8.7,3.5-12.8c1.2-2.5,2.5-5,4-7.3c0.5-0.8,0.9-0.9,1.6,0c2.5,3.4,3.7,7.3,4.5,11.4
			c1.1,5.5,1,11,0.7,16.5C123,257.3,122.7,262.5,123.5,268 M249.4,312.7c-5.8,2.2-11.5,4.7-17.6,6c-0.9,0.2-1.8,0.4-2.7,0.6
			c-1.9,0.5-3.8,0.9-5.7,1.2c-0.8,0.1-1.6,0.2-2.4,0.3c-4.3,0.5-8.5,0.5-12.6-0.1c-6.8-0.9-13.3-3.2-19.6-6.6
			c-5.2-2.8-10.2-5.7-14.7-9.5c-3-2.5-5.5-5.3-7.3-8.8c-1.3-2.5-2.6-5-4-7.5c-1.4-2.1-2.3-4.5-3.4-6.8c-0.4-0.7,0.3-0.6,0.6-0.5
			c3,0.6,6,0.9,9.1,1.3c3.9,0.5,7.9,0.8,11.9,1c7.5,0.4,15.1,0.7,22.5,2.4c5.4,1.2,10.5,3.3,15.5,5.6c11,5.1,21.5,11.2,32.3,16.6
			c1.3,0.7,2.7,1.3,4.1,2.1C253.4,311.2,251.4,311.9,249.4,312.7 M338,311.3c-6.5,3.7-13.5,5.8-20.8,6.9
			c-16.3,2.6-32.1,0.6-47.6-4.5c-0.1,0-0.3-0.1-0.4-0.2c-0.1,0-0.1-0.1-0.2-0.2c5.2-1.7,10.5-2.9,15.9-3.7c11-1.7,22-1.2,33,0.1
			c6.9,0.8,13.8,1.1,20.7,1C338.7,311.1,338.2,311.1,338,311.3"/>
		<path class="st4" d="M355.9,287.8c-0.4,0.9-0.7,1.8-1,2.7c-2.4,7.6-6.1,14.4-11.7,20.1c-8.1,8.3-18.5,11.6-29.8,12.6
			c-4.9,0.4-9.9,0.2-14.8-0.2c-4.9-0.4-9.8-1.3-14.6-2.3c-7.7-1.6-15.1-4.2-22.5-7c-4.9-1.9-4.9-1.9-9.2,1.3
			c-5.1,3.8-10.1,7.7-15.5,11c-1.5,0.9-3,1.8-4.5,2.7c0.4,0.3,0.8,0.6,1.3,0.9c6.5,4.2,13.3,7.7,20.4,10.8
			c11.3,4.9,22.9,8.9,35.4,9.7c11.5,0.7,22.5-1.1,32.7-6.5c5.5-2.9,10.4-6.4,14.7-10.4c7.2-6.7,12.9-14.8,17-24.2
			C356.1,302.1,356,294.9,355.9,287.8"/>
		<path class="st4" d="M155.2,280.9c-1.1-0.3-2.2-0.6-3.3-0.8c-10.8-2-21.1-5.5-30.6-11.2c-4-2.4-7.7-5.1-10.5-9
			c-3.6-4.9-4.5-10.5-4-16.4c0.6-6.3,2.8-12.1,5.8-17.7c1.7-3,3.6-5.8,5.8-8.4c0.6-0.8,0.6-1.2-0.4-1.5c-2-0.7-3.9-1.6-5.8-2.5
			c-3.8-2-7-4.6-10.1-7.4c-0.2,0.1-0.3,0.3-0.5,0.4c-9.9,10.4-15.7,22.7-16.7,37.1c-0.7,10.8,2.8,19.6,12.2,25.6
			c4.9,3.1,10.2,5.2,15.7,6.8c4.4,1.3,8.8,2.5,13.1,3.7C135.7,281.4,145.5,281.4,155.2,280.9"/>
		<path class="st4" d="M140.9,166.3c0.1,1.1-0.5,1.9-0.9,2.8c-2.9,6.4-7.3,11.7-12.4,16.4c-5,4.7-10.4,8.7-16.2,12.2
			c-0.3,0.2-0.6,0.3-0.9,0.4c0,0.2,0,0.3,0.1,0.5c1.3,4,3.6,7.6,6,11c1,1.4,2.1,2.8,3.5,3.9c0.7,0.6,1.2,0.7,2-0.1
			c2.2-2.1,4.5-4.2,6.8-6.2c6.6-5.9,12.9-11.9,18-19.1c3.8-5.4,6.4-11.4,7.6-18c0.3-1.9,0.3-3.8,0.7-5.7c0-0.7,0-1.4,0-2
			c-0.2-0.3-0.2-0.6-0.2-0.9c-0.2-3.2-0.5-6.4-0.5-9.7c0-2.4,0.1-4.9,0.9-7.2c0.2-0.7,0.4-1.4,0.6-2.1c0.7-2.1,1.7-4,2.9-5.9
			c3.5-5.3,8.3-9.5,13.5-13c1.5-1,3-1.9,4.7-3c-1-0.1-1.7,0.1-2.5,0.2c-8.7,1.5-16.1,5.3-21.8,12.2c-3.4,4.2-5.7,9.1-7.4,14.2
			c-1.5,4.8-2.5,9.7-3.2,14.7C141.9,163.6,141.6,165,140.9,166.3"/>
		<path class="st3" d="M154.3,152c0,3.2,0.3,6.4,0.5,9.7c0,0.3,0,0.6,0.2,0.9c1.6-1.1,2.7-2.6,3.7-4.2c2.4-4,3.5-8.3,4.2-12.8
			c0.3-1.7,0.6-3.5,0.5-5.5c-1.6,2.3-3.6,3.4-5.9,4.2c-0.7,0.3-1.5,0.5-2.3,0.7C154.4,147.1,154.4,149.6,154.3,152"/>
		<path class="st4" d="M218.9,291.3c-5-2.3-10.1-4.4-15.5-5.6c-7.4-1.7-15-2-22.5-2.4c-4-0.2-7.9-0.5-11.9-1c-3-0.4-6.1-0.7-9.1-1.3
			c-0.3-0.1-1-0.2-0.6,0.5c1.1,2.3,2,4.6,3.4,6.8c4.8,1,9.5,2.5,14.2,4.1c12.9,4.4,24.3,11.3,34.5,20.2c2.9,2.5,5.9,5,8.8,7.5
			c0.3,0.2,0.6,0.4,0.7,0.8c0.8-0.1,1.6-0.2,2.4-0.3c1.9-0.3,3.8-0.7,5.7-1.2c0.9-0.2,1.8-0.4,2.7-0.6c6.1-1.4,11.8-3.9,17.6-6
			c2-0.8,4.1-1.5,6-2.7c-1.5-0.7-2.8-1.4-4.1-2.1C240.4,302.5,229.9,296.5,218.9,291.3"/>
	</g>
</g>
</svg>
