<?xml version="1.0" encoding="utf-8"?>
<!-- Generator: Adobe Illustrator 19.1.0, SVG Export Plug-In . SVG Version: 6.00 Build 0)  -->
<svg version="1.1" id="Layer_1" xmlns="http://www.w3.org/2000/svg" xmlns:xlink="http://www.w3.org/1999/xlink" x="0px" y="0px"
	 viewBox="0 0 386 326" style="enable-background:new 0 0 386 326;" xml:space="preserve">
<style type="text/css">
	.st0{fill:#FFFFFF;}
	.st1{fill:#0570B6;}
	.st2{fill:#767675;}
	.st3{fill:#727372;}
	.st4{fill:#757574;}
	.st5{fill:#747473;}
	.st6{fill:#717170;}
	.st7{fill:#682680;}
	.st8{fill:#0671B8;}
</style>
<g>
	<path class="st0" d="M382.7,169c-0.4,1.2-0.8,2.4-1.3,3.6c-10.1,42.9-50.1,120.5-61.5,144.9c-1.2,2.6-2.4,5.2-3.6,7.8H69.7
		c-0.2-0.4-0.4-0.8-0.5-1.2c-1.2-2.5-2.5-5.2-3.8-8.1c-2.2-4.7-4.4-9.4-6.5-14.2c-0.5-1.1-1-2.1-1.4-3.2
		c-11.6-25.3-23-50.6-33.6-76.3C13.7,198.8,5.3,178,3.3,169c-4.6-13.3,0.5-27.9,12-39c4-4.8,8.4-9.8,13.3-15
		c6.1-6.7,12.6-13.7,16.1-16.7l0.3,0.3c2.4-2.3,4.9-4.6,7.4-6.9c17.6-17.2,37.1-33.2,58.6-47.9c11.6-8.4,22.9-16.1,33.4-22.5
		C159.7,11,171.6,5.9,179.8,3.3c2.1-0.7,4-1.3,5.8-1.7c2.1-0.5,4.2-0.8,6.4-0.8c0.7,0,1,0,1,0v0c1.2,0,2.3,0.1,3.5,0.2
		c4.3,0.5,8.6,1.8,12.7,4c23.7,9.5,56.5,33.7,85.3,57.1c16.7,12.8,32.6,26.2,47.5,40.4c0.1,0.1,0.2,0.1,0.2,0.2
		c0,0,4.4,3.6,10.5,9.6c5.4,5.1,9.9,9.8,13.6,13.8C380.9,137.6,387.9,154,382.7,169"/>
	<g>
		<path class="st1" d="M120.9,131.2h7.5v14.2h0.1c0.8-1.2,1.6-2.4,2.3-3.5l7.6-10.7h9.4l-11.1,13.7l11.7,18.4h-8.8l-8.3-13.8
			l-2.9,3.4v10.5h-7.5V131.2z"/>
		<path class="st1" d="M158.1,155.1l-2.4,8.2h-7.8l10.2-32.1h10l10.5,32.1h-8.2l-2.6-8.2H158.1z M166.7,149.7l-2.1-6.8
			c-0.6-1.9-1.2-4.3-1.7-6.2h-0.1c-0.5,1.9-1,4.3-1.6,6.2l-2,6.8H166.7z"/>
		<path class="st1" d="M181.1,163.3v-32.1h8.9l7,11.7c2,3.4,3.9,7.4,5.5,11h0.1c-0.5-4.2-0.6-8.6-0.6-13.4v-9.3h7v32.1h-8l-7.2-12.4
			c-2-3.4-4.2-7.6-5.9-11.3h-0.2c0.2,4.3,0.3,8.8,0.3,14v9.7H181.1z"/>
		<path class="st1" d="M220.2,131.2h7.6v20.3c0,9.1-4.6,12.3-11.9,12.3c-1.8,0-4.1-0.3-5.6-0.8l0.9-5.9c1,0.3,2.4,0.6,3.9,0.6
			c3.2,0,5.2-1.4,5.2-6.3V131.2z"/>
		<rect x="232.2" y="131.2" class="st1" width="7.6" height="32.1"/>
		<path class="st1" d="M244.4,163.3v-32.1h8.9l7,11.7c2,3.4,3.9,7.4,5.5,11h0.1c-0.4-4.2-0.6-8.6-0.6-13.4v-9.3h7v32.1h-8l-7.2-12.4
			c-2-3.4-4.2-7.6-5.8-11.3H251c0.2,4.3,0.3,8.8,0.3,14v9.7H244.4z"/>
		<polygon class="st1" points="283.4,137.3 274.3,137.3 274.3,131.2 300.2,131.2 300.2,137.3 291,137.3 291,163.3 283.4,163.3 		"/>
		<rect x="302.3" y="131.2" class="st1" width="7.6" height="32.1"/>
		<path class="st2" d="M204.7,176.5c1.9-1.8,3.6-1.7,5.4,0.1c0.4,0.4,0.5,0,0.6-0.1c1.5-1.7,4.1-1.7,5.5,0c0.7,0.8,0.9,1.7,0.9,2.7
			c0,4,0,8,0,12c0,0.5-0.2,0.6-0.6,0.6c-1.2,0-1.2,0-1.2-1.2c0-3.7,0-7.3,0-11c0-1.3-0.6-2.2-1.5-2.5c-1.5-0.4-2.8,0.5-2.9,2.2
			c-0.1,1.3,0,2.5,0,3.8c0,2.7,0,5.3,0,8c0,0.6-0.1,0.8-0.7,0.7c-0.2,0-0.3,0-0.5,0c-0.5,0.1-0.7-0.1-0.6-0.6c0-3.9,0-7.7,0-11.6
			c0-1.3-0.6-2.2-1.5-2.5c-1.5-0.4-2.8,0.6-2.9,2.3c0,1.5,0,3,0,4.4c0,2.4,0,4.9,0,7.3c0,0.6-0.1,0.8-0.7,0.7c-0.2,0-0.3,0-0.5,0
			c-0.5,0.1-0.7-0.1-0.7-0.6c0-5,0-10,0-14.9c0-0.5,0.1-0.7,0.6-0.7c0.1,0,0.1,0,0.2,0C204.6,175.4,204.6,175.4,204.7,176.5"/>
		<path class="st3" d="M232.7,190.5c0,0.3,0,0.5,0,0.7c0,0.3-0.1,0.5-0.4,0.4c0,0,0,0-0.1,0c-1.3,0.1-1.3,0.1-1.3-1.3
			c0-6.9,0-13.8,0-20.7c0-0.3-0.2-0.7,0.2-0.7c0.5-0.1,1-0.1,1.5,0.1c0.2,0.1,0.1,0.4,0.1,0.5c0,2.2,0,4.5,0,6.7
			c0.2,0.1,0.3-0.1,0.4-0.2c1.6-1.6,4.3-1.1,5.4,0.9c0.4,0.8,0.6,1.7,0.6,2.5c0.2,3.1,0.4,6.2-0.2,9.3c-0.4,2.2-2.1,3.4-4.1,3
			C233.9,191.7,233.3,191.2,232.7,190.5 M232.7,183.6c0,1.2,0,2.5,0,3.7c0,0.6,0.1,1.2,0.3,1.8c0.4,0.8,1,1.2,1.9,1.2
			c0.9,0,1.5-0.4,1.9-1.2c0.1-0.3,0.2-0.6,0.3-0.9c0.4-2.4,0.3-4.9,0.2-7.3c0-0.9-0.1-1.8-0.4-2.6c-0.3-0.9-1.1-1.4-1.9-1.4
			c-0.9,0-1.6,0.5-2,1.3c-0.2,0.5-0.3,1.1-0.3,1.6C232.7,181.1,232.7,182.3,232.7,183.6"/>
		<path class="st4" d="M149.5,190.4c-0.8,1-1.6,1.6-2.7,1.6c-1.6,0-2.9-0.9-3.4-2.4c-0.4-1.3-0.5-2.5-0.2-3.8c0.4-2,2-3.2,4.1-3.3
			c0.5,0,1.1,0,1.6,0c0.4,0,0.6-0.1,0.6-0.5c0-0.9,0-1.8,0-2.8c-0.1-1.5-0.8-2.3-2.1-2.3c-1.2,0-2,0.8-2.2,2.1
			c0,0.2,0.1,0.6-0.2,0.7c-0.5,0.1-1,0.1-1.5,0c-0.2,0-0.1-0.2-0.1-0.4c-0.1-2.1,1.4-3.8,3.4-4c2.5-0.2,4.1,0.9,4.5,3.2
			c0.1,0.4,0.1,0.7,0.1,1.1c0,3.8,0,7.6,0,11.4c0,0.6-0.1,0.8-0.7,0.7c-0.1,0-0.3,0-0.4,0c-0.5,0.1-0.7-0.1-0.6-0.6
			C149.5,190.9,149.5,190.7,149.5,190.4 M149.4,186.2v-0.8c0-1.6,0-1.6-1.5-1.6c-1.8,0-2.7,0.8-3,2.6c-0.1,0.7-0.1,1.3,0.1,2
			c0.3,1.2,0.9,1.8,2,1.9c1.1,0,1.9-0.6,2.3-1.8C149.5,187.7,149.4,186.9,149.4,186.2"/>
		<path class="st5" d="M225.9,190.4c-0.7,0.9-1.5,1.4-2.5,1.5c-1.7,0.1-3-0.8-3.6-2.4c-0.4-1.2-0.4-2.3-0.2-3.5
			c0.4-2.2,1.9-3.5,4.1-3.6c0.1,0,0.2,0,0.4,0c0.6,0,1.4,0.3,1.7-0.1c0.4-0.4,0.1-1.2,0.1-1.8c0-0.6,0-1.1,0-1.7
			c-0.1-1.3-0.9-2-2.1-2c-1.1,0-2,0.8-2.2,1.9c-0.1,0.3,0.2,0.8-0.2,0.9c-0.5,0.1-1,0.1-1.4,0c-0.3,0-0.2-0.3-0.2-0.5
			c0-2.2,1.6-3.9,3.7-4c2.5-0.1,4.1,1.1,4.3,3.5c0.1,0.7,0,1.3,0,2c0,3.4,0,6.9,0,10.3c0,0.6-0.1,0.8-0.7,0.7
			C226.1,191.6,226.1,191.7,225.9,190.4 M226,186C226,186,226,186,226,186l0-0.2c0-2.1-0.2-2.2-2.3-1.9c-1,0.2-1.7,0.7-2,1.7
			c-0.4,1.1-0.3,2.2,0,3.3c0.3,0.7,0.8,1.2,1.6,1.4c0.9,0.1,1.6-0.1,2.1-0.8c0.3-0.4,0.5-0.8,0.5-1.3
			C225.9,187.4,225.9,186.7,226,186"/>
		<path class="st5" d="M197.8,190.4c-0.9,1-1.8,1.5-2.9,1.5c-1.8,0-3.1-1.3-3.4-3c-0.1-0.6-0.1-1.2-0.1-1.7c0-3.6,0-7.2,0-10.8
			c0-0.9,0-0.9,0.9-0.9c0.8-0.1,0.9,0.2,0.9,0.9c-0.1,1.4,0,2.8,0,4.2c0,2.4,0,4.9,0,7.3c0,1.3,0.7,2.2,1.7,2.4
			c1.4,0.3,2.6-0.6,2.7-2c0.1-0.9,0-1.7,0-2.6c0-3.1,0-6.3,0-9.4c0-0.6,0.2-0.8,0.7-0.7c0.5,0.1,1.2-0.3,1.1,0.7
			c-0.1,4.9,0,9.8,0,14.7c0,0.6-0.1,0.8-0.8,0.8C198.1,191.7,197.5,191.7,197.8,190.4"/>
		<path class="st6" d="M178.4,190.6c-1.8,1.7-3.8,1.8-5.3,0.3c-0.7-0.7-1-1.5-1-2.4c0-4.2,0-8.3-0.1-12.5c0-0.4,0.1-0.5,0.5-0.5
			c1.3,0,1.3-0.1,1.3,1.2c0,3.5,0,7,0,10.5c0,0.5,0,0.9,0.1,1.4c0.3,1.1,1,1.7,2.1,1.7c1.1,0,1.9-0.7,2.1-1.7
			c0.1-0.4,0.1-0.9,0.1-1.4c0-3.6,0-7.3,0-10.9c0-0.6,0.2-0.8,0.8-0.8c1.2,0.1,1-0.1,1,1c0,4.8,0,9.6,0,14.4c0,0.5,0.1,1-0.8,0.9
			c-1-0.1-1,0-1-0.9C178.4,190.7,178.4,190.7,178.4,190.6"/>
		<path class="st5" d="M157.8,175.2c2.4,0,4.1,1.7,4.1,4.2c0,0.3-0.1,0.5-0.4,0.5c-0.1,0-0.3,0-0.4,0c-0.7,0.1-1-0.1-1-0.9
			c-0.1-1.3-1-2.1-2.3-2.1c-1.3,0-2.1,0.8-2.2,2.2c-0.1,1.1,0.3,2,1.3,2.6c1.2,0.7,2.5,1.3,3.6,2.1c2.3,1.7,2.4,5.3,0.3,7.1
			c-1.4,1.2-3.1,1.4-4.8,0.7c-1.6-0.7-2.2-2.1-2.4-3.8c0-0.4,0.1-0.5,0.4-0.5c0.2,0,0.4,0,0.6,0c0.6-0.1,0.8,0.2,0.9,0.8
			c0.1,1.4,1.2,2.3,2.5,2.3c1.4-0.1,2.3-1,2.4-2.5c0.1-1.4-0.5-2.4-1.7-3.1c-0.9-0.5-1.9-1-2.8-1.6c-2.2-1.4-2.8-4-1.3-6.1
			C155.2,175.8,156.3,175.2,157.8,175.2"/>
		<path class="st5" d="M131.9,181.2c0,3.3,0,6.6,0,9.8c0,0.5-0.2,0.6-0.7,0.6c-1.3,0-1.3,0-1.3-1.3c0-6.2,0-12.4,0-18.6
			c0-1.1,0-1.1-1.2-1.1c-0.7,0-1.4,0-2,0c-0.4,0-0.6-0.1-0.6-0.6c0-1.4-0.2-1.2,1.1-1.2c2.6,0,5.1,0,7.7,0c0.5,0,0.7,0.1,0.7,0.7
			c0,1.1,0,1.1-1.1,1.1c-0.7,0-1.4,0-2,0c-0.5,0-0.7,0.1-0.7,0.7C131.9,174.7,131.9,177.9,131.9,181.2"/>
		<path class="st5" d="M187.6,177.1c-1.5,0-3,0-4.5,0c-0.8,0-0.6-0.4-0.6-0.8c0-0.4-0.2-0.9,0.6-0.8c2,0,4,0,6,0
			c0.4,0,0.6,0.1,0.6,0.6c0,0.5-0.1,1-0.3,1.6c-1.6,3.9-3.3,7.8-4.9,11.8c-0.3,0.7-0.3,0.7,0.5,0.7c1.4,0,2.7,0,4.1,0
			c0.6,0,0.6,0.4,0.5,0.7c0,0.4,0.3,0.9-0.5,0.9c-2.1,0-4.3,0-6.4,0c-0.4,0-0.5-0.1-0.5-0.5c0-0.6,0.1-1.1,0.3-1.7
			c1.7-3.9,3.3-7.9,4.9-11.8C187.5,177.5,187.5,177.3,187.6,177.1"/>
		<path class="st3" d="M164.9,182.7c0-1.7,0-3.4,0-5.1c0-0.5-0.2-0.7-0.7-0.6c-0.1,0-0.3,0-0.4,0c-0.9,0-1.1-0.3-0.9-1.2
			c0.1-0.3,0.3-0.2,0.5-0.3c1.5-0.1,1.5-0.1,1.5-1.5c0-0.9,0-1.8,0-2.8c0-0.4,0.1-0.6,0.6-0.6c1.3,0,1.3,0,1.3,1.3c0,1,0,2,0,3.1
			c0,0.5,0.1,0.6,0.6,0.6c0.5,0,1,0,1.5,0c0.6-0.1,0.7,0.3,0.7,0.8c0,0.5,0,0.8-0.7,0.7c-0.6-0.1-1.1,0-1.7,0
			c-0.3,0-0.5,0.1-0.5,0.5c0,3.4,0,6.7,0,10.1c0,1.5,0.8,2.2,2.2,2.4c1,0.1,0.6,0.8,0.6,1.3c0.1,0.7-0.5,0.4-0.8,0.4
			c-2.5-0.1-3.8-1.4-3.9-3.9C164.9,186.1,165,184.4,164.9,182.7C165,182.7,164.9,182.7,164.9,182.7"/>
		<path class="st5" d="M244.5,180.4c0,2.6,0,5.2,0,7.8c0,1.9-0.9,3.3-2.2,4.6c-0.2,0.2-0.4,0.2-0.5,0c-0.1-0.1-0.2-0.2-0.3-0.3
			c-0.5-0.4-0.5-0.7,0-1.1c1-0.8,1.4-1.9,1.4-3.2c0-5.2,0-10.4,0-15.5c0-1.3-0.4-2.5-1.5-3.3c-0.7-0.6,0-0.8,0.2-1.1
			c0.3-0.4,0.5-0.3,0.9,0c1.3,1.3,2,2.8,2,4.7C244.5,175.5,244.5,177.9,244.5,180.4"/>
		<path class="st5" d="M120.9,180.4c0-2.6,0-5.2,0-7.8c0-1.9,0.8-3.3,2.1-4.5c0.2-0.2,0.4-0.2,0.6,0c0.8,0.7,0.8,0.7,0.1,1.5
			c-0.8,0.9-1.2,1.9-1.2,3.1c0,5.2,0,10.3,0,15.5c0,1.3,0.5,2.5,1.5,3.3c0.7,0.5,0,0.7-0.2,1c-0.3,0.3-0.5,0.5-0.9,0.1
			c-1.3-1.3-2.1-2.9-2-4.8C121,185.4,120.9,182.9,120.9,180.4"/>
		<path class="st6" d="M138,177c0.8-1.1,1.7-1.7,2.9-1.8c0.5-0.1,0.7,0.1,0.6,0.6c0,0.2,0,0.4,0,0.7c0,0.4-0.1,0.5-0.5,0.5
			c-2,0.2-3,1.2-3,3.3c0,3.5,0,7,0,10.6c0,0.9-0.4,0.8-1,0.9c-0.7,0.1-0.9-0.2-0.9-0.9c0-4.9,0-9.7,0-14.6c0-0.6,0.1-0.9,0.8-0.8
			c0.3,0.1,0.8-0.3,1,0.3C138.1,176.1,138,176.5,138,177"/>
		<path class="st1" d="M313.9,135.4c0-1.9,1.6-3.5,3.5-3.5c1.9,0,3.5,1.6,3.5,3.5c0,2-1.6,3.5-3.5,3.5
			C315.5,138.9,313.9,137.3,313.9,135.4 M320.3,135.4c0-1.6-1.3-2.9-2.8-2.9c-1.6,0-2.8,1.3-2.8,2.9c0,1.6,1.3,2.9,2.8,2.9
			C319,138.3,320.3,137,320.3,135.4 M319.2,137.3h-0.9l-0.8-1.6h-0.7v1.6H316v-3.8h1.8c0.3,0,0.7,0,1,0.2c0.3,0.2,0.4,0.6,0.4,1
			c0,0.7-0.4,1-1,1L319.2,137.3z M317.8,135.1c0.4,0,0.7-0.1,0.7-0.6c0-0.5-0.5-0.5-0.9-0.5h-0.9v1.1H317.8z"/>
		<path class="st0" d="M104.2,144.5c0.1-0.4,0.2-0.8,0.3-1.2C104.4,143.7,104.3,144.1,104.2,144.5"/>
		<path class="st0" d="M205,249.1c4-3.7,7.1-8.2,9.5-13.5c0.9-0.1,1.9-0.3,2.8-0.6c-0.9,0.2-1.8,0.5-2.8,0.6
			C212.2,240.9,209.1,245.4,205,249.1"/>
		<path class="st0" d="M145.2,241.4c-1,0.2-2.1,0.5-3.2,0.6C143.1,241.9,144.1,241.7,145.2,241.4"/>
		<path class="st7" d="M232.2,212.3c0-0.5-0.1-1.1-0.1-1.6c-0.4,1-0.8,2-1.2,2.9c-0.5,0.9-1.1,1.8-1.8,2.6
			c-3.2,3.6-7.3,5.8-11.9,6.9c-1.5,0.4-1.5,0.4-1.4-1.2c0.1-2.2,0.2-4.3-0.3-6.5c-0.1,0.1-0.1,0.3-0.1,0.4c-0.2,2.5-0.6,4.9-1.4,7.3
			c-0.1,0.4-0.3,0.6-0.8,0.6c-2.7,0.1-5.3-0.3-7.9-0.9c-4-1-8-2.3-12.1-2.9c-4.8-0.7-9.4-0.4-13.9,1.7c-3,1.4-5.5,3.4-7.9,5.6
			c-3.1,3-6.4,5.8-10.1,7.9c-0.4,0.2-0.8,0.3-1.2,0.1c-1.4-0.7-2.9-1.4-4.3-2.2c-4.7-2.6-9.2-5.3-14-7.6c-6.3-3-12.9-4.8-19.9-5.1
			c-5-0.2-10-0.4-15-1.1c-0.5-0.1-0.7-0.2-0.9-0.7c-1.6-4-2.6-8.2-3.3-12.4c-0.4-2.4-0.7-4.9-1.8-7.2c-1.5-3.2-3.8-5.7-6.4-8
			c-2.5-2.2-5.1-4.2-7.6-6.4c-0.5-0.4-0.5-0.7,0-1.1c2.8-2.7,5.7-5.3,8.4-8.2c3-3.3,5.7-6.7,7.3-10.9c1.1-2.9,2-5.8,1.6-8.9
			c-0.2,1-0.2,2.1-0.4,3.2c-0.6,3.7-2.1,6.9-4.2,10c-2.8,4-6.4,7.4-10,10.6c-1.3,1.1-2.5,2.3-3.8,3.4c-0.4,0.4-0.7,0.4-1.1,0
			c-0.8-0.6-1.4-1.4-1.9-2.2c-1.4-1.9-2.6-3.9-3.3-6.1c0-0.1,0-0.2,0-0.3c-0.4-1.7-0.4-3.2-0.1-4.6c0.3-1.4,1-2.7,1.9-3.8
			c0.6-0.8,1.3-1.5,2.1-2.2c3.3-2.9,7.2-4.8,11.2-6.4c0.6-0.2,1.2-0.4,1.8-0.7c0.4-0.7,0.6-1.5,0.7-2.3c0.4-2.8,0.9-5.5,1.8-8.1
			c-6.4,1.9-12.8,4.1-18.6,7.5c-2.7,1.6-5,3.7-6.7,6.4c-2.2,3.4-3.3,7.2-2.5,11.3c0.5,2.9,2,5.2,3.9,7.4c1.7,1.6,3.5,3,5.6,4.1
			c1,0.5,2.1,1,3.2,1.4c0.6,0.2,0.6,0.4,0.2,0.8c-1.2,1.5-2.3,3-3.2,4.7c-1.7,3.1-2.9,6.3-3.2,9.8c-0.3,3.3,0.2,6.4,2.2,9.1
			c1.5,2.1,3.6,3.6,5.8,5c5.3,3.2,11,5.1,17,6.2c0.6,0.1,1.2,0.2,1.8,0.4c-5.4,0.3-10.9,0.3-16.2-0.7c0,0.1,0.1,0.3,0.1,0.4
			c2.8,7,6.6,13.4,11.8,18.9c10.7,11.4,23.7,14.7,38.6,11c2.9-0.7,5.8-1.9,8.6-3.1c0.8-0.5,1.6-1,2.5-1.5c3-1.8,5.8-4,8.6-6.1
			c2.4-1.7,2.4-1.8,5.1-0.7c4.1,1.6,8.2,3,12.5,3.9c2.7,0.6,5.4,1,8.1,1.3c2.7,0.2,5.5,0.3,8.2,0.1c6.2-0.6,12-2.4,16.5-7
			c3.1-3.2,5.2-7,6.5-11.2c0.2-0.5,0.3-1,0.5-1.5c0.1,4,0.1,7.9-1.1,11.8c0.9-0.1,1.9-0.3,2.8-0.6c0.9-0.2,1.8-0.5,2.7-0.9
			c5.5-2.1,9.4-5.7,11.2-11.4C232.2,219.4,232.4,215.9,232.2,212.3 M86.5,212.9c-1.3-0.8-2.4-1.6-3.4-2.5c-3.1-2.8-4.8-6.3-4.6-10.6
			c0.1-2.5,0.9-4.9,2-7.1c0.7-1.4,1.4-2.8,2.2-4.1c0.3-0.5,0.5-0.5,0.9,0c1.4,1.9,2,4.1,2.5,6.3c0.6,3,0.6,6.1,0.4,9.1
			C86.3,207,86.1,209.9,86.5,212.9 M156.4,237.7c-3.2,1.2-6.4,2.6-9.8,3.4c-0.5,0.1-1,0.2-1.5,0.3c-1,0.2-2.1,0.5-3.2,0.6
			c-0.4,0.1-0.9,0.1-1.3,0.1c-2.4,0.3-4.7,0.3-7,0c-3.8-0.5-7.4-1.8-10.9-3.7c-2.9-1.5-5.7-3.1-8.2-5.3c-1.6-1.4-3.1-3-4.1-4.9
			c-0.7-1.4-1.5-2.8-2.2-4.2c-0.8-1.2-1.3-2.5-1.9-3.8c-0.2-0.4,0.1-0.3,0.3-0.3c1.7,0.4,3.3,0.5,5,0.7c2.2,0.3,4.4,0.4,6.6,0.6
			c4.2,0.2,8.4,0.4,12.5,1.3c3,0.7,5.8,1.8,8.6,3.1c6.1,2.9,11.9,6.2,18,9.2c0.7,0.4,1.5,0.7,2.3,1.2
			C158.7,236.9,157.6,237.3,156.4,237.7 M205.6,236.9c-3.6,2.1-7.5,3.2-11.5,3.8c-9,1.5-17.8,0.3-26.4-2.5c-0.1,0-0.1,0-0.2-0.1
			c0,0-0.1-0.1-0.1-0.1c2.9-0.9,5.9-1.6,8.9-2.1c6.1-1,12.2-0.7,18.3,0c3.8,0.5,7.7,0.6,11.5,0.5C206,236.8,205.8,236.8,205.6,236.9
			"/>
		<path class="st8" d="M215.6,223.9c-0.2,0.5-0.4,1-0.5,1.5c-1.3,4.2-3.4,8-6.5,11.2c-4.5,4.6-10.3,6.4-16.5,7
			c-2.7,0.2-5.5,0.1-8.2-0.1c-2.7-0.2-5.4-0.7-8.1-1.3c-4.3-0.9-8.4-2.3-12.5-3.9c-2.7-1.1-2.7-1-5.1,0.7c-2.8,2.1-5.6,4.3-8.6,6.1
			c-0.8,0.5-1.6,1-2.5,1.5c0.2,0.2,0.5,0.3,0.7,0.5c3.6,2.3,7.4,4.3,11.3,6c6.3,2.7,12.7,4.9,19.6,5.4c6.4,0.4,12.5-0.6,18.1-3.6
			c3.1-1.6,5.8-3.5,8.2-5.7c4-3.7,7.1-8.2,9.5-13.5C215.7,231.8,215.6,227.9,215.6,223.9"/>
		<path class="st8" d="M104.2,220.1c-0.6-0.2-1.2-0.3-1.8-0.4c-6-1.1-11.7-3.1-17-6.2c-2.2-1.3-4.3-2.9-5.8-5
			c-2-2.7-2.5-5.8-2.2-9.1c0.3-3.5,1.5-6.7,3.2-9.8c0.9-1.7,2-3.2,3.2-4.7c0.4-0.4,0.3-0.6-0.2-0.8c-1.1-0.4-2.2-0.9-3.2-1.4
			c-2.1-1.1-3.9-2.5-5.6-4.1c-0.1,0.1-0.2,0.2-0.3,0.2c-5.5,5.8-8.7,12.6-9.3,20.6c-0.4,6,1.6,10.9,6.8,14.2
			c2.7,1.7,5.7,2.9,8.7,3.8c2.4,0.7,4.9,1.4,7.3,2C93.3,220.3,98.8,220.3,104.2,220.1"/>
		<path class="st8" d="M96.2,156.5c0,0.6-0.3,1.1-0.5,1.6c-1.6,3.6-4.1,6.5-6.9,9.1c-2.8,2.6-5.8,4.8-9,6.8
			c-0.2,0.1-0.3,0.2-0.5,0.2c0,0.1,0,0.2,0,0.3c0.7,2.2,2,4.2,3.3,6.1c0.6,0.8,1.2,1.5,1.9,2.2c0.4,0.3,0.7,0.4,1.1,0
			c1.2-1.2,2.5-2.3,3.8-3.4c3.6-3.3,7.2-6.6,10-10.6c2.1-3,3.6-6.3,4.2-10c0.2-1,0.1-2.1,0.4-3.2c0-0.4,0-0.8,0-1.1
			c-0.1-0.1-0.1-0.3-0.1-0.5c-0.1-1.8-0.3-3.6-0.3-5.4c0-1.3,0-2.7,0.5-4c0.1-0.4,0.2-0.8,0.3-1.2c0.4-1.2,1-2.2,1.6-3.2
			c2-3,4.6-5.2,7.5-7.2c0.8-0.6,1.7-1.1,2.6-1.7c-0.6-0.1-1,0.1-1.4,0.1c-4.8,0.8-9,2.9-12.1,6.8c-1.9,2.4-3.2,5-4.1,7.9
			c-0.8,2.7-1.4,5.4-1.8,8.1C96.8,154.9,96.6,155.7,96.2,156.5"/>
		<path class="st8" d="M79.3,174.2L79.3,174.2c0,0.1,0,0.2,0,0.3C79.3,174.4,79.3,174.3,79.3,174.2z"/>
		<path class="st7" d="M105.4,144.1c-0.4,0.1-0.8,0.3-1.3,0.4C104.6,144.4,105,144.3,105.4,144.1"/>
		<path class="st7" d="M103.7,148.5c0,1.8,0.2,3.6,0.3,5.4c0,0.2,0,0.3,0.1,0.5c0.9-0.6,1.5-1.5,2-2.3c1.3-2.2,2-4.6,2.4-7.1
			c0.2-1,0.3-1.9,0.3-3.1c-0.9,1.3-2,1.9-3.3,2.3c-0.4,0.1-0.8,0.3-1.3,0.4C103.7,145.8,103.7,147.2,103.7,148.5"/>
		<path class="st8" d="M139.5,225.8c-2.8-1.3-5.6-2.5-8.6-3.1c-4.1-0.9-8.3-1.1-12.5-1.3c-2.2-0.1-4.4-0.3-6.6-0.6
			c-1.7-0.2-3.4-0.4-5-0.7c-0.2,0-0.5-0.1-0.3,0.3c0.6,1.2,1.1,2.6,1.9,3.8c2.7,0.6,5.3,1.4,7.9,2.3c7.2,2.4,13.5,6.3,19.2,11.2
			c1.6,1.4,3.3,2.8,4.9,4.1c0.1,0.1,0.3,0.2,0.4,0.4c0.4,0,0.9-0.1,1.3-0.1c1.1-0.2,2.1-0.4,3.2-0.6c0.5-0.1,1-0.2,1.5-0.3
			c3.4-0.8,6.5-2.1,9.8-3.4c1.1-0.4,2.3-0.8,3.4-1.5c-0.8-0.4-1.6-0.8-2.3-1.2C151.4,232.1,145.6,228.7,139.5,225.8"/>
		<path class="st8" d="M140.7,242.2L140.7,242.2c0.4,0,0.9-0.1,1.3-0.1C141.6,242.1,141.1,242.2,140.7,242.2"/>
	</g>
</g>
</svg>
