<?xml version="1.0" encoding="utf-8"?>
<!-- Generator: Adobe Illustrator 19.1.0, SVG Export Plug-In . SVG Version: 6.00 Build 0)  -->
<svg version="1.1" id="Layer_1" xmlns="http://www.w3.org/2000/svg" xmlns:xlink="http://www.w3.org/1999/xlink" x="0px" y="0px"
	 viewBox="0 0 1080 180" style="enable-background:new 0 0 1080 180;" xml:space="preserve">
<style type="text/css">
	.st0{clip-path:url(#SVGID_2_);fill:#013B58;}
	.st1{clip-path:url(#SVGID_4_);fill:#FFFFFF;}
</style>
<g>
	<defs>
		<rect id="SVGID_1_" x="0" y="0" width="1080" height="174.4"/>
	</defs>
	<clipPath id="SVGID_2_">
		<use xlink:href="#SVGID_1_"  style="overflow:visible;"/>
	</clipPath>
	<path class="st0" d="M82.5,129.2c18,28.1,49.1,45.2,82.5,45.2h549.6h145H915c33.4,0,64.5-17,82.5-45.2L1080,0L859.6,0l-145,0L0,0
		L82.5,129.2z"/>
</g>
<g>
	<defs>
		<rect id="SVGID_3_" x="321.3" y="45.9" width="437.3" height="82.5"/>
	</defs>
	<clipPath id="SVGID_4_">
		<use xlink:href="#SVGID_3_"  style="overflow:visible;"/>
	</clipPath>
	<path class="st1" d="M540.4,62.9h12.4v6.2c0.4-0.4,0.6-0.6,0.7-0.8c7.2-10.3,22.4-8.5,28.9,0.2c3.4,4.6,4.9,9.8,5.3,15.4
		c0.3,4.2-0.2,8.4-1.4,12.5c-1.8,5.7-5,10.3-10.5,13.1c-6.5,3.3-16.7,2.6-22.1-4.8c-0.1-0.1-0.2-0.2-0.5-0.5v24.3h-12.7V62.9z
		 M552.9,86.5c0.2,1.6,0.3,3.3,0.6,4.9c1.3,6.6,6.3,10.1,12.7,8.8c4.3-0.9,6.6-3.9,7.7-8c1-3.8,0.9-7.7,0.1-11.6
		c-0.9-4.2-3.7-8.3-9.5-8.6c-4.4-0.2-7.9,1.4-9.9,5.8C553.4,80.6,553.1,83.5,552.9,86.5"/>
	<path class="st1" d="M334.1,128.5h-12.7V63h12.3v6.2c0.4-0.4,0.6-0.6,0.7-0.8c7.2-10.3,22.5-8.5,29,0.2c3.4,4.6,4.9,9.8,5.3,15.4
		c0.3,4.2-0.2,8.3-1.4,12.4c-1.8,5.6-4.9,10.2-10.3,13c-6.6,3.4-17,2.8-22.4-4.8c-0.1-0.1-0.2-0.2-0.4-0.4V128.5z M355.8,86.5
		c-0.3-2-0.4-4-0.9-6c-1.7-7.1-6.7-9.2-12.6-8.2c-4,0.7-6.3,3.5-7.4,7.3c-1.1,4-1.2,8-0.4,12.1c1.1,5,4.1,7.9,8.6,8.7
		c4.9,0.8,9-1.4,11-6C355.3,91.9,355.6,89.2,355.8,86.5"/>
	<path class="st1" d="M453.4,86.2c-0.1,3.7-0.7,7.2-2,10.6c-2.4,6.5-7,10.9-13.5,13c-6.3,2-12.8,2.1-19.1,0
		c-8.2-2.7-12.9-8.6-14.6-17.1c-1.1-5.3-0.9-10.6,0.7-15.9c2.4-7.6,7.4-12.5,15-14.6c5.8-1.6,11.7-1.6,17.4,0.1
		c8.4,2.6,13.4,8.4,15.2,17.1C453,81.7,453.1,84,453.4,86.2 M439.9,85.7c-0.1-0.8-0.1-2.2-0.3-3.5c-1.1-7.6-6.2-11.4-13.7-10.1
		c-4.5,0.8-7,3.7-8.2,8c-1,3.5-1.1,7.1-0.4,10.7c1.1,6.2,4.5,9.6,10.4,10c4.3,0.3,7.9-1.1,10.1-5.1
		C439.5,92.7,439.8,89.5,439.9,85.7"/>
	<path class="st1" d="M505.9,85.3c-0.1,5.8-0.9,10.5-3.3,14.7c-2.9,5.2-7.2,8.4-12.8,10c-5.9,1.7-11.8,1.7-17.6,0
		c-8-2.4-13-7.7-15-15.8c-1.5-6.1-1.4-12.1,0.6-18.1c2.4-6.9,7.1-11.5,14-13.6c6.1-1.9,12.3-1.9,18.4,0c8.6,2.7,13.4,8.8,15,17.5
		C505.7,82.2,505.8,84.3,505.9,85.3 M469.5,87.1c0.1,0.8,0.2,2.5,0.5,4c1.5,7.4,6.6,10.6,13.7,9.4c4.3-0.7,6.8-3.7,8-7.8
		c1.1-3.7,1.1-7.5,0.4-11.3c-1.2-6-4.6-9.2-10.3-9.5c-4.1-0.3-7.6,1-9.9,4.7C470,79.6,469.6,82.9,469.5,87.1"/>
	<path class="st1" d="M641.8,86.3c-0.2,3.8-0.8,7.5-2.2,11c-2.1,5.5-5.9,9.5-11.3,11.7c-7.2,3-14.7,3.1-22,0.5
		c-7-2.5-11.4-7.6-13.4-14.9c-1.7-6.2-1.5-12.5,0.5-18.6c2.4-6.9,7.2-11.5,14.1-13.5c6.1-1.8,12.3-1.9,18.3,0
		c8.2,2.6,13,8.3,14.8,16.6C641.3,81.5,641.5,83.9,641.8,86.3 M628.3,86.3c-0.2-1.6-0.3-3.2-0.6-4.7c-1.5-8.1-7.3-10.9-14.4-9.3
		c-4.2,1-6.5,4.1-7.5,8.2c-0.9,3.6-0.9,7.2-0.2,10.8c1,5,4.1,9.2,10.2,9.5c5.2,0.3,9.1-1.8,11.1-7C627.9,91.4,628.2,88.9,628.3,86.3
		"/>
	<path class="st1" d="M680.9,109.7h-13.1V63h12.7v5.3c0.4-0.3,0.6-0.4,0.7-0.6c4.1-4.4,9.2-6.2,15.1-5.9c1.9,0.1,3.9,0.3,5.7,0.8
		c5.1,1.4,8.1,5,9.1,10.2c0.3,1.4,0.5,2.9,0.5,4.3c0,10.6,0,21.1,0,31.7c0,0.3,0,0.5,0,0.9h-13c0-0.4,0-0.8,0-1.2c0-9,0-18,0-27
		c0-1.4-0.2-2.8-0.4-4.1c-0.5-3-2.6-5-5.7-5c-1.8-0.1-3.8,0-5.5,0.5c-3.7,1.2-5.6,4-6,7.8c-0.1,1-0.1,2-0.1,3c0,8.2,0,16.5,0,24.7
		V109.7z"/>
	<path class="st1" d="M526.6,109.7h-12.8V71.7h-7v-8.8h6.9c0-1.5,0-2.9,0-4.3c0.1-1.3,0.1-2.7,0.4-3.9c1-4.7,4-7.5,8.9-8.3
		c3.8-0.7,7.7-0.4,11.6-0.2v10c-0.9,0-1.8,0-2.6,0c-0.7,0-1.4,0-2.1,0c-2.6,0.1-3.4,1-3.5,3.6c0,1,0,2,0,3.1h8.2v8.8h-8V109.7z"/>
	<path class="st1" d="M742.4,100.6v9.3c-0.1,0.1-0.1,0.1-0.2,0.1c-4.2,0.2-8.5,0.6-12.7-0.2c-4.5-0.8-6.6-3.1-7.3-7.6
		c-0.3-1.7-0.4-3.4-0.4-5.1c0-8.1,0-16.3,0-24.4c0-0.3,0-0.6-0.1-1.1h-6.4v-8.8h6.4V50.2h13v12.7h7.5v8.8h-7.5c0,0.5,0,0.9,0,1.2
		c0,8.1,0,16.2,0,24.3c0,2.6,0.7,3.3,3.2,3.3C739.4,100.6,740.9,100.6,742.4,100.6"/>
	<path class="st1" d="M402.1,74.5c-2,0-4-0.1-5.9,0c-5.7,0.3-9,3.8-9.1,9.6c-0.1,8.1,0,16.1,0,24.2c0,0.4,0,0.8,0,1.3h-13.1V63h12
		v7.5c0.1,0.1,0.1,0.2,0.2,0.2c3.4-6.4,8.5-9.7,15.9-9V74.5z"/>
	<rect x="646.7" y="63" class="st1" width="13" height="46.7"/>
	<rect x="646.7" y="46.4" class="st1" width="13" height="11.2"/>
	<path class="st1" d="M749.4,105.9c0-2.6,2.1-4.7,4.7-4.7c2.6,0,4.6,2.1,4.6,4.7c0,2.6-2.1,4.8-4.6,4.8
		C751.5,110.7,749.4,108.5,749.4,105.9 M757.8,105.9c0-2.1-1.7-3.8-3.8-3.8c-2.1,0-3.8,1.7-3.8,3.8c0,2.2,1.7,3.9,3.8,3.9
		C756.1,109.8,757.8,108,757.8,105.9 M756.4,108.5h-1.2l-1.1-2.2h-1v2.2h-1v-5.1h2.4c0.4,0,1,0,1.4,0.2c0.4,0.3,0.6,0.8,0.6,1.3
		c0,0.9-0.5,1.3-1.4,1.4L756.4,108.5z M754.6,105.6c0.5,0,0.9-0.1,0.9-0.8c0-0.7-0.7-0.7-1.2-0.7h-1.2v1.4H754.6z"/>
</g>
</svg>
