<?xml version="1.0" encoding="utf-8"?>
<!-- Generator: Adobe Illustrator 19.1.0, SVG Export Plug-In . SVG Version: 6.00 Build 0)  -->
<svg version="1.1" id="Layer_1" xmlns="http://www.w3.org/2000/svg" xmlns:xlink="http://www.w3.org/1999/xlink" x="0px" y="0px"
	 viewBox="0 0 35 55" style="enable-background:new 0 0 35 55;" xml:space="preserve">
<style type="text/css">
	.st0{clip-path:url(#SVGID_2_);fill:url(#SVGID_3_);}
	.st1{clip-path:url(#SVGID_5_);fill:url(#SVGID_6_);}
	.st2{clip-path:url(#SVGID_8_);fill:url(#SVGID_9_);}
	.st3{clip-path:url(#SVGID_11_);fill:url(#SVGID_12_);}
	.st4{clip-path:url(#SVGID_14_);fill:url(#SVGID_15_);}
	.st5{clip-path:url(#SVGID_17_);fill:url(#SVGID_18_);}
</style>
<g>
	<g>
		<defs>
			<path id="SVGID_1_" d="M8.5,2.1c-6.2,1.4-9.3,14.4-6,28.8C5.7,45.4,14,55.8,20.3,54.4l6.7-1.5L15.2,0.6L8.5,2.1z"/>
		</defs>
		<clipPath id="SVGID_2_">
			<use xlink:href="#SVGID_1_"  style="overflow:visible;"/>
		</clipPath>
		
			<linearGradient id="SVGID_3_" gradientUnits="userSpaceOnUse" x1="-511.8825" y1="990.9681" x2="-510.8825" y2="990.9681" gradientTransform="matrix(10.1095 44.8241 -56.892 12.831 61560.582 10232.9902)">
			<stop  offset="0" style="stop-color:#FFC800"/>
			<stop  offset="0.4192" style="stop-color:#FFF4CB"/>
			<stop  offset="0.7096" style="stop-color:#FFD731"/>
			<stop  offset="1" style="stop-color:#E66000"/>
		</linearGradient>
		<polygon class="st0" points="-12.6,3.3 0.6,61.8 38.8,53.1 25.6,-5.3 		"/>
	</g>
	<g>
		<defs>
			<path id="SVGID_4_" d="M8.5,2.1C2.3,3.5-0.2,16.4,3.1,30.8c3.3,14.4,11,25,17.2,23.6l6.7-1.5L15.2,0.6L8.5,2.1z"/>
		</defs>
		<clipPath id="SVGID_5_">
			<use xlink:href="#SVGID_4_"  style="overflow:visible;"/>
		</clipPath>
		
			<linearGradient id="SVGID_6_" gradientUnits="userSpaceOnUse" x1="-513.2086" y1="990.4901" x2="-512.2086" y2="990.4901" gradientTransform="matrix(11.7265 51.9935 -65.9916 14.8833 71390.0547 11945.5088)">
			<stop  offset="0" style="stop-color:#FFC800"/>
			<stop  offset="0.4192" style="stop-color:#FFF4CB"/>
			<stop  offset="0.7096" style="stop-color:#FFD731"/>
			<stop  offset="1" style="stop-color:#E66000"/>
		</linearGradient>
		<polygon class="st1" points="-12,3.3 1.1,61.6 38.8,53.1 25.7,-5.2 		"/>
	</g>
	<g>
		<defs>
			<path id="SVGID_7_" d="M14.9,0.7C8.4,2.1,5.9,15,9.1,29.4c3.3,14.4,11.1,25,17.5,23.5c6.4-1.5,9-14.3,5.7-28.8
				C29.3,10.7,22.2,0.5,16.1,0.5C15.7,0.5,15.3,0.6,14.9,0.7"/>
		</defs>
		<clipPath id="SVGID_8_">
			<use xlink:href="#SVGID_7_"  style="overflow:visible;"/>
		</clipPath>
		
			<linearGradient id="SVGID_9_" gradientUnits="userSpaceOnUse" x1="-512.9133" y1="997.405" x2="-511.9133" y2="997.405" gradientTransform="matrix(28.5023 25.7231 -34.9936 25.7777 49526.8789 -12503.9385)">
			<stop  offset="0" style="stop-color:#FFC800"/>
			<stop  offset="0.4192" style="stop-color:#FFF4CB"/>
			<stop  offset="0.7096" style="stop-color:#FFD731"/>
			<stop  offset="1" style="stop-color:#E66000"/>
		</linearGradient>
		<polygon class="st2" points="-27,24.8 19.3,66.5 68.5,30.2 22.3,-11.5 		"/>
	</g>
	<g>
		<defs>
			<path id="SVGID_10_" d="M15.2,0.6C8.9,2,6.5,14.9,9.8,29.3c3.3,14.4,11,25,17.2,23.6c6.2-1.4,8.7-14.3,5.4-28.7
				C29.3,10.6,22.3,0.5,16.3,0.5C15.9,0.5,15.6,0.5,15.2,0.6"/>
		</defs>
		<clipPath id="SVGID_11_">
			<use xlink:href="#SVGID_10_"  style="overflow:visible;"/>
		</clipPath>
		
			<linearGradient id="SVGID_12_" gradientUnits="userSpaceOnUse" x1="-529.7467" y1="984.5032" x2="-528.7467" y2="984.5032" gradientTransform="matrix(-11.79 -52.2752 66.3492 -14.9639 -71539.8125 -12907.666)">
			<stop  offset="0" style="stop-color:#FFC800"/>
			<stop  offset="0.4192" style="stop-color:#FFF4CB"/>
			<stop  offset="0.7096" style="stop-color:#FFD731"/>
			<stop  offset="1" style="stop-color:#E66000"/>
		</linearGradient>
		<polygon class="st3" points="47.2,51.7 34.2,-5.8 -5,3.1 7.9,60.5 		"/>
	</g>
	<g>
		<defs>
			<path id="SVGID_13_" d="M16.7,7.2c-4.7,1.1-6.5,10.7-4.1,21.5c2.4,10.8,8.2,18.7,12.9,17.6c4.7-1.1,6.5-10.7,4.1-21.5
				C27.3,14.7,22,7.1,17.5,7.1C17.2,7.1,17,7.1,16.7,7.2"/>
		</defs>
		<clipPath id="SVGID_14_">
			<use xlink:href="#SVGID_13_"  style="overflow:visible;"/>
		</clipPath>
		
			<linearGradient id="SVGID_15_" gradientUnits="userSpaceOnUse" x1="-526.9681" y1="985.6233" x2="-525.9681" y2="985.6233" gradientTransform="matrix(-16.0905 -79.7307 101.0011 -21.2886 -107998.8594 -20964.7051)">
			<stop  offset="0" style="stop-color:#FFDC49"/>
			<stop  offset="0.1742" style="stop-color:#FFE26E"/>
			<stop  offset="0.1946" style="stop-color:#FFD964"/>
			<stop  offset="0.2293" style="stop-color:#FFC249"/>
			<stop  offset="0.2738" style="stop-color:#FF9C1D"/>
			<stop  offset="0.3005" style="stop-color:#FF8200"/>
			<stop  offset="0.3939" style="stop-color:#FFBF00"/>
			<stop  offset="0.4278" style="stop-color:#FFC81F"/>
			<stop  offset="0.465" style="stop-color:#FFD03A"/>
			<stop  offset="0.4978" style="stop-color:#FFD44B"/>
			<stop  offset="0.5227" style="stop-color:#FFD651"/>
			<stop  offset="0.5606" style="stop-color:#FFBF00"/>
			<stop  offset="0.6111" style="stop-color:#C35C00"/>
			<stop  offset="0.6263" style="stop-color:#E34900"/>
			<stop  offset="0.6793" style="stop-color:#FF8D00"/>
			<stop  offset="0.7955" style="stop-color:#FFED93"/>
			<stop  offset="1" style="stop-color:#FFBF00"/>
		</linearGradient>
		<polygon class="st4" points="39.8,45.7 31.1,2.7 2.4,8.7 11.1,51.8 		"/>
	</g>
	<g>
		<defs>
			<path id="SVGID_16_" d="M16.4,7.2c-4.5,1-6.2,10.6-3.8,21.4c2.4,10.8,8.1,18.7,12.6,17.7c4.5-1,6.2-10.6,3.8-21.4
				C26.8,14.8,21.6,7.2,17.2,7.2C17,7.2,16.7,7.2,16.4,7.2"/>
		</defs>
		<clipPath id="SVGID_17_">
			<use xlink:href="#SVGID_16_"  style="overflow:visible;"/>
		</clipPath>
		
			<linearGradient id="SVGID_18_" gradientUnits="userSpaceOnUse" x1="-508.7669" y1="979.6904" x2="-507.7669" y2="979.6904" gradientTransform="matrix(-26.1707 26.0181 -29.7138 -18.5414 15824.708 31420.918)">
			<stop  offset="0" style="stop-color:#FFBE1E"/>
			<stop  offset="1.010100e-002" style="stop-color:#FFBE1E"/>
			<stop  offset="1" style="stop-color:#E66000"/>
		</linearGradient>
		<polygon class="st5" points="18.4,-1 -14.7,31.9 23.3,55.5 56.3,22.7 		"/>
	</g>
</g>
</svg>
