<?xml version="1.0" encoding="utf-8"?>
<!-- Generator: Adobe Illustrator 19.1.0, SVG Export Plug-In . SVG Version: 6.00 Build 0)  -->
<svg version="1.1" id="Layer_1" xmlns="http://www.w3.org/2000/svg" xmlns:xlink="http://www.w3.org/1999/xlink" x="0px" y="0px"
	 viewBox="-65.3 224 216 114" style="enable-background:new -65.3 224 216 114;" xml:space="preserve">
<style type="text/css">
	.st0{clip-path:url(#SVGID_2_);fill:url(#SVGID_3_);}
	.st1{fill:#FFFFFF;}
	.st2{clip-path:url(#SVGID_5_);fill:url(#SVGID_6_);}
</style>
<g>
	<g>
		<defs>
			<path id="SVGID_1_" d="M-8.5,225c-31,0-56,25.1-56,56v0c0,31,25.1,56,56,56H93.9c31,0,56-25.1,56-56s-25.1-56-56-56H-8.5z"/>
		</defs>
		<clipPath id="SVGID_2_">
			<use xlink:href="#SVGID_1_"  style="overflow:visible;"/>
		</clipPath>
		
			<linearGradient id="SVGID_3_" gradientUnits="userSpaceOnUse" x1="-271.3223" y1="1236.0952" x2="-270.3223" y2="1236.0952" gradientTransform="matrix(-125.9599 113.9278 113.9278 125.9599 -174876.5625 -124580.6172)">
			<stop  offset="0" style="stop-color:#0671B8"/>
			<stop  offset="1" style="stop-color:#682680"/>
		</linearGradient>
		<polygon class="st0" points="205.7,286.6 31.9,443.8 -120.4,275.4 53.4,118.2 		"/>
	</g>
	<path class="st1" d="M-58.9,281L-58.9,281c0-27.8,22.5-50.3,50.3-50.3H93.9c27.8,0,50.3,22.5,50.3,50.3v0
		c0,27.8-22.5,50.3-50.3,50.3H-8.5C-36.4,331.3-58.9,308.8-58.9,281"/>
	<g>
		<defs>
			<path id="SVGID_4_" d="M-8.5,233.5c-26.2,0-47.5,21.3-47.5,47.5c0,26.2,21.3,47.5,47.5,47.5H93.9c26.2,0,47.5-21.3,47.5-47.5v0
				c0-26.2-21.3-47.5-47.5-47.5H-8.5z"/>
		</defs>
		<clipPath id="SVGID_5_">
			<use xlink:href="#SVGID_4_"  style="overflow:visible;"/>
		</clipPath>
		
			<linearGradient id="SVGID_6_" gradientUnits="userSpaceOnUse" x1="-271.9871" y1="1244.8929" x2="-270.9871" y2="1244.8929" gradientTransform="matrix(197.3991 0 0 -197.3991 53633.9648 246021.7344)">
			<stop  offset="0" style="stop-color:#0671B8"/>
			<stop  offset="1" style="stop-color:#682680"/>
		</linearGradient>
		<rect x="-56" y="233.5" class="st2" width="197.4" height="95"/>
	</g>
	<path class="st1" d="M43.2,253.2c0.1,0.1,0.2,0.1,0.4,0.2c0.9,0.4,1.3,1.1,1.4,2c0,0.7,0,1.4,0,2.2c0,0.3,0.1,0.4,0.4,0.5
		c6.7,1.2,11.8,6.1,13.1,12.8c0.2,1.1,0.3,2.3,0.3,3.5c0.1,2.4,0,4.9,0.1,7.3c0.3,4.2,2,7.6,5.1,10.4c0.9,0.8,1.6,1.7,1.7,2.9
		c0.2,2.4-1.5,4.4-3.9,4.5c-0.1,0-0.3,0-0.4,0c-12.5,0-25,0-37.4,0c-1.4,0-2.7-0.4-3.6-1.6c-1.3-1.7-1.1-4.1,0.7-5.6
		c1.5-1.3,2.8-2.9,3.7-4.7c1.2-2.3,1.7-4.7,1.7-7.3c0-2.2,0-4.4,0-6.7c0.1-7.6,5.9-14.2,13.4-15.5c0.4-0.1,0.5-0.2,0.5-0.6
		c0-0.4,0-0.9,0-1.3c-0.1-1.4,0.4-2.4,1.8-3H43.2z"/>
	<path class="st1" d="M51.1,301.8c-0.4,3-3.5,6.9-8.3,6.9c-4.7,0.1-8-3.6-8.5-6.9H51.1z"/>
</g>
</svg>
