<?xml version="1.0" encoding="utf-8"?>
<!-- Generator: Adobe Illustrator 19.1.0, SVG Export Plug-In . SVG Version: 6.00 Build 0)  -->
<svg version="1.1" id="Layer_1" xmlns="http://www.w3.org/2000/svg" xmlns:xlink="http://www.w3.org/1999/xlink" x="0px" y="0px"
	 viewBox="-197 340 216 114" style="enable-background:new -197 340 216 114;" xml:space="preserve">
<style type="text/css">
	.st0{clip-path:url(#SVGID_2_);fill:url(#SVGID_3_);}
	.st1{fill:#FFFFFF;}
	.st2{clip-path:url(#SVGID_5_);fill:url(#SVGID_6_);}
	.st3{fill:none;stroke:#FFFFFF;stroke-width:2;stroke-miterlimit:10;}
	.st4{fill:none;stroke:#FFFFFF;stroke-width:2;stroke-linecap:round;stroke-miterlimit:10;}
</style>
<g>
	<g>
		<g>
			<g>
				<defs>
					<path id="SVGID_1_" d="M-140.2,341c-31,0-56,25.1-56,56l0,0c0,31,25.1,56,56,56h102.4c31,0,56-25.1,56-56s-25.1-56-56-56
						H-140.2z"/>
				</defs>
				<clipPath id="SVGID_2_">
					<use xlink:href="#SVGID_1_"  style="overflow:visible;"/>
				</clipPath>
				
					<linearGradient id="SVGID_3_" gradientUnits="userSpaceOnUse" x1="-1061.7458" y1="1239.1766" x2="-1060.7458" y2="1239.1766" gradientTransform="matrix(-125.9599 113.9278 113.9278 125.9599 -274920.9688 -34801.5078)">
					<stop  offset="0" style="stop-color:#0671B8"/>
					<stop  offset="1" style="stop-color:#682680"/>
				</linearGradient>
				<polygon class="st0" points="74,402.6 -99.8,559.8 -252.1,391.4 -78.3,234.2 				"/>
			</g>
		</g>
	</g>
	<path class="st1" d="M-190.6,397L-190.6,397c0-27.8,22.5-50.3,50.3-50.3h102.5c27.8,0,50.3,22.5,50.3,50.3l0,0
		c0,27.8-22.5,50.3-50.3,50.3h-102.4C-168.1,447.3-190.6,424.8-190.6,397"/>
	<g>
		<g>
			<g>
				<defs>
					<path id="SVGID_4_" d="M-140.2,349.5c-26.2,0-47.5,21.3-47.5,47.5s21.3,47.5,47.5,47.5h102.4c26.2,0,47.5-21.3,47.5-47.5l0,0
						c0-26.2-21.3-47.5-47.5-47.5H-140.2z"/>
				</defs>
				<clipPath id="SVGID_5_">
					<use xlink:href="#SVGID_4_"  style="overflow:visible;"/>
				</clipPath>
				
					<linearGradient id="SVGID_6_" gradientUnits="userSpaceOnUse" x1="-1056.6621" y1="1244.3256" x2="-1055.6621" y2="1244.3256" gradientTransform="matrix(197.3991 0 0 -197.3991 208396.4531 246025.7344)">
					<stop  offset="0" style="stop-color:#0671B8"/>
					<stop  offset="1" style="stop-color:#682680"/>
				</linearGradient>
				<rect x="-187.7" y="349.5" class="st2" width="197.4" height="95"/>
			</g>
		</g>
	</g>
	<path class="st3" d="M-88,369.1c0.9,0.4,1.4,0.9,1.4,1.9c0,0.7,0,1.5,0,2.2c0,0.3,0.1,0.4,0.4,0.5c6.9,1.2,12,6.2,13.4,13
		c0.2,1.2,0.3,2.4,0.3,3.6c0.1,2.5,0,5,0.1,7.5c0.3,4.2,2.1,7.8,5.2,10.6c0.9,0.8,1.6,1.7,1.7,3c0.2,2.5-1.5,4.4-4,4.6
		c-0.1,0-0.3,0-0.4,0c-12.7,0-25.4,0-38.2,0c-1.5,0-2.7-0.5-3.6-1.6c-1.4-1.8-1.1-4.2,0.7-5.7c1.6-1.4,2.8-2.9,3.8-4.8
		c1.2-2.3,1.8-4.8,1.8-7.4c0-2.3,0-4.5,0-6.8c0.1-7.8,6-14.5,13.6-15.8c0.4-0.1,0.6-0.2,0.5-0.6c0-0.4,0-0.9,0-1.3
		c-0.1-1.5,0.4-2.5,1.8-3h1.1C-88.4,369-88.2,369-88,369.1z"/>
	<g>
		<path class="st1" d="M-83.3,420.2c-1.1,1.6-3,3-5.6,3H-89c-2.5,0-4.5-1.4-5.7-3H-83.3 M-80.4,418.2h-17.2c0.5,3.4,3.9,7,8.6,7h0.1
			C-84,425.2-80.8,421.3-80.4,418.2L-80.4,418.2z"/>
	</g>
	<path class="st4" d="M-100.2,389c0-5.2,4.2-9.5,9.5-9.5"/>
</g>
</svg>
