<?xml version="1.0" encoding="utf-8"?>
<!-- Generator: Adobe Illustrator 19.1.0, SVG Export Plug-In . SVG Version: 6.00 Build 0)  -->
<svg version="1.1" id="Layer_1" xmlns="http://www.w3.org/2000/svg" xmlns:xlink="http://www.w3.org/1999/xlink" x="0px" y="0px"
	 viewBox="-65.3 224 216 114" style="enable-background:new -65.3 224 216 114;" xml:space="preserve">
<style type="text/css">
	.st0{clip-path:url(#SVGID_2_);fill:url(#SVGID_3_);}
	.st1{fill:#FFFFFF;}
	.st2{clip-path:url(#SVGID_5_);fill:url(#SVGID_6_);}
</style>
<g>
	<g>
		<defs>
			<path id="SVGID_1_" d="M-8.5,225c-31,0-56,25.1-56,56v0c0,31,25.1,56,56,56H93.9c31,0,56-25.1,56-56s-25.1-56-56-56H-8.5z"/>
		</defs>
		<clipPath id="SVGID_2_">
			<use xlink:href="#SVGID_1_"  style="overflow:visible;"/>
		</clipPath>
		
			<linearGradient id="SVGID_3_" gradientUnits="userSpaceOnUse" x1="-272.7625" y1="1237.3978" x2="-271.7625" y2="1237.3978" gradientTransform="matrix(-125.9599 113.9278 113.9278 125.9599 -175206.375 -124580.6172)">
			<stop  offset="0" style="stop-color:#0671B8"/>
			<stop  offset="1" style="stop-color:#682680"/>
		</linearGradient>
		<polygon class="st0" points="205.7,286.6 31.9,443.8 -120.4,275.4 53.4,118.2 		"/>
	</g>
	<path class="st1" d="M-58.9,281L-58.9,281c0-27.8,22.5-50.3,50.3-50.3H93.9c27.8,0,50.3,22.5,50.3,50.3v0
		c0,27.8-22.5,50.3-50.3,50.3H-8.5C-36.4,331.3-58.9,308.8-58.9,281"/>
	<g>
		<defs>
			<path id="SVGID_4_" d="M-8.5,233.5c-26.2,0-47.5,21.3-47.5,47.5c0,26.2,21.3,47.5,47.5,47.5H93.9c26.2,0,47.5-21.3,47.5-47.5v0
				c0-26.2-21.3-47.5-47.5-47.5H-8.5z"/>
		</defs>
		<clipPath id="SVGID_5_">
			<use xlink:href="#SVGID_4_"  style="overflow:visible;"/>
		</clipPath>
		
			<linearGradient id="SVGID_6_" gradientUnits="userSpaceOnUse" x1="-270.3162" y1="1244.8929" x2="-269.3162" y2="1244.8929" gradientTransform="matrix(197.3991 0 0 -197.3991 53304.1484 246021.7344)">
			<stop  offset="0" style="stop-color:#0671B8"/>
			<stop  offset="1" style="stop-color:#682680"/>
		</linearGradient>
		<rect x="-56" y="233.5" class="st2" width="197.4" height="95"/>
	</g>
	<path class="st1" d="M23,246c1.1,0.4,1.9,1.1,2.2,2.3c0.3,1.6-0.6,3.1-2.1,3.4c-1.5,0.4-3-0.5-3.5-1.9c-0.5-1.5,0.3-3,1.8-3.6
		c0.1-0.1,0.3-0.1,0.4-0.2H23z M22.2,249.7c0.1,0,0.2,0,0.3,0c0.2-0.3,0.5-0.5,0.6-0.9c0.1-0.4-0.3-0.8-0.7-0.7
		c-0.3,0.1-0.6,0.4-0.7,0.7C21.6,249.1,22,249.4,22.2,249.7"/>
	<path class="st1" d="M22.5,262.3c-2.4-0.6-3.6-2.4-3-4.5c0.4-1.5,1.7-2.6,3.3-2.7c5.3,0,10.7,0,16,0c1.8,0,3.2,1.4,3.5,3.2
		c0.2,1.6-0.8,3.3-2.5,3.8c-0.2,0.1-0.4,0.1-0.6,0.2v0.7c0,6.2,0,12.4,0,18.6c0,0.6,0.2,0.8,0.6,1.1c6.3,3.8,9.7,11.3,8.3,18.7
		c-1.4,7.3-7.3,13.1-14.6,14.3c-9.9,1.6-19.2-5-20.8-14.9c-1.2-7.5,2.5-14.9,9.3-18.6c0.3-0.2,0.6-0.4,0.6-0.8c0-6.2,0-12.5,0-18.7
		C22.6,262.6,22.5,262.5,22.5,262.3 M44.9,291.7c-0.1-0.3-0.2-0.5-0.3-0.7c-1.5-3-3.7-5.3-6.7-6.8c-0.6-0.3-0.9-0.8-0.9-1.5
		c0-1,0-1.9,0-3c-0.4,0-0.6,0-0.9,0c-1.4,0-2.7,0-4.1,0c-0.7,0-1.1-0.5-1.1-1.1c0-0.6,0.4-1,1.2-1.1c1.2,0,2.3,0,3.5,0
		c0.5,0,0.9,0,1.4,0v-2.2c-1.7,0-3.3,0-4.9,0c-0.8,0-1.2-0.5-1.2-1.1c0-0.6,0.5-1,1.2-1.1c1.2,0,2.4,0,3.6,0c0.4,0,0.8,0,1.3,0V271
		c-0.2,0-0.4,0-0.5,0c-1.5,0-3,0-4.4,0c-0.7,0-1.1-0.5-1.1-1.1c0-0.6,0.4-1,1.1-1.1c0.3,0,0.6,0,1,0c1.3,0,2.7,0,4,0v-2.2
		c-0.3,0-0.5,0-0.8,0c-1.4,0-2.7,0-4.1,0c-0.8,0-1.2-0.4-1.2-1.1c0-0.7,0.5-1.1,1.2-1.1c0.4,0,0.7,0,1.1,0c1.2,0,2.5,0,3.8,0
		c0-0.5,0-1,0-1.4c0.1-0.6-0.2-0.7-0.7-0.7c-3.6,0-7.2,0-10.9,0c-0.2,0-0.4,0-0.7,0v0.9c0,6.3,0,12.7,0,19c0,0.8-0.3,1.2-1,1.5
		c-4.1,1.9-6.8,5.1-8.3,9.3c-0.5,1.5-0.8,3-0.8,4.6c2.8,0.7,5.5,1.2,8.3,1c1.9-0.1,3.6-0.7,5.2-1.9c1.5-1.1,3.1-2.2,4.7-3.2
		c2.8-1.7,5.8-2.7,9.1-2.4C42.9,291.3,43.9,291.5,44.9,291.7 M14.9,300.2c0,0.2,0,0.4,0,0.6c1.8,10.2,12.8,15.9,22.2,11.6
		c6.6-3.1,10.2-10.3,8.8-17.3c-0.1-0.4-0.3-0.7-0.7-0.8c-2.8-1.1-5.6-1.1-8.5,0c-2.8,1.1-5.1,2.9-7.5,4.6c-0.8,0.6-1.8,1.1-2.7,1.5
		c-2.3,0.9-4.8,0.9-7.2,0.6C17.9,300.7,16.4,300.4,14.9,300.2 M30.8,257.3c-2.6,0-5.1,0-7.7,0c-0.9,0-1.5,0.6-1.5,1.3
		c0,0.8,0.5,1.4,1.4,1.4c0.2,0,0.4,0,0.5,0c4.9,0,9.8,0,14.6,0c0.3,0,0.6,0,1-0.1c0.8-0.2,1.2-1,1-1.7c-0.2-0.7-0.7-1-1.5-1
		C36,257.3,33.4,257.3,30.8,257.3"/>
	<path class="st1" d="M68.3,274v0.9c0,11.3,0,22.5,0,33.8c0,3.1-1.3,5.4-4.1,6.7c-4.3,2-9.4-1-9.8-5.8c0-0.5,0-0.9,0-1.4
		c0-11.1,0-22.2,0-33.3v-1c-0.4,0-0.8,0-1.2-0.1c-2-0.2-3.4-1.7-3.4-3.6c0.1-2,1.6-3.5,3.6-3.5c3.3,0,6.6,0,9.9,0c2,0,3.9,0,5.9,0
		c1.8,0,3.4,1.4,3.6,3.1c0.2,1.9-0.9,3.5-2.6,4C69.6,274,69,273.9,68.3,274 M66.1,282.4c-0.3,0-0.5,0-0.8,0c-1.3,0-2.6,0-3.9,0
		c-0.7,0-1.1-0.5-1.1-1.1c0-0.6,0.5-1,1.1-1.1c0.8,0,1.6,0,2.5,0c0.7,0,1.5,0,2.2,0V274h-9.5v0.9c0,11.2,0,22.4,0,33.7
		c0,0.3,0,0.6,0,0.9c0.2,2,1.2,3.3,3,4.1c1.8,0.7,3.5,0.4,4.9-0.8c1.5-1.3,1.8-3.1,1.6-5c-0.3,0-0.5,0-0.8,0c-1.2,0-2.5,0-3.7,0
		c-0.8,0-1.3-0.4-1.3-1.1c0-0.7,0.5-1.1,1.3-1.1c0.5,0,1,0,1.4,0c1,0,2,0,3.1,0v-6.2c-1.5,0-2.9,0-4.3,0c-1,0-1.5-0.4-1.5-1.1
		c0-0.7,0.5-1.1,1.5-1.1c0.5,0,0.9,0,1.4,0h2.9v-6.2c-0.3,0-0.5,0-0.8,0c-1.2,0-2.4,0-3.6,0c-1,0-1.5-0.4-1.5-1.1
		c0-0.7,0.5-1.1,1.5-1.1c1,0,2.1,0,3.1,0h1.2V282.4z M61.3,271.8c1.9,0,3.8,0,5.7,0c0.8,0,1.6,0,2.4,0c0.9-0.1,1.4-0.8,1.2-1.6
		c-0.1-0.7-0.7-1.1-1.6-1.1c-5.1,0-10.2,0-15.2,0c-0.2,0-0.5,0-0.7,0.1c-0.6,0.2-1,0.7-1,1.4c0,0.6,0.5,1.2,1.1,1.3
		c0.3,0.1,0.6,0.1,0.9,0.1C56.5,271.8,58.9,271.8,61.3,271.8"/>
	<path class="st1" d="M45.3,250.6c0-2,1.6-3.6,3.6-3.6c2,0,3.7,1.6,3.7,3.6c0,2-1.7,3.6-3.6,3.6C46.9,254.3,45.3,252.6,45.3,250.6
		 M48.9,249.2c-0.8,0-1.4,0.6-1.4,1.4c0,0.8,0.6,1.4,1.4,1.4c0.8,0,1.4-0.7,1.4-1.4C50.3,249.9,49.7,249.2,48.9,249.2"/>
	<path class="st1" d="M72.8,260.6c0,1.6-1.3,2.9-2.9,2.9c-1.6,0-2.9-1.3-2.9-3c0-1.6,1.3-2.9,2.9-2.9
		C71.5,257.6,72.8,258.9,72.8,260.6 M70.7,260.6c0-0.1,0-0.2,0-0.3c-0.3-0.2-0.6-0.5-0.9-0.5c-0.4,0-0.8,0.3-0.6,0.8
		c0.1,0.3,0.4,0.6,0.7,0.6C70.2,261.2,70.5,260.8,70.7,260.6"/>
	<path class="st1" d="M23.5,288.8c0-1.6,1.3-2.9,2.9-3c1.6,0,2.9,1.3,2.9,2.9c0,1.6-1.3,2.9-2.9,3C24.8,291.7,23.5,290.4,23.5,288.8
		 M25.6,288.6c0,0.1,0,0.2,0,0.3c0.3,0.2,0.6,0.5,0.8,0.5c0.2,0,0.6-0.4,0.7-0.7c0.1-0.4-0.2-0.8-0.7-0.7
		C26.1,288.1,25.8,288.4,25.6,288.6"/>
	<path class="st1" d="M31.3,309c-2,0-3.6-1.6-3.6-3.6c0-2,1.6-3.7,3.6-3.7c2,0,3.6,1.6,3.6,3.6C34.9,307.3,33.3,308.9,31.3,309
		 M31.2,306.8c0.8,0,1.4-0.6,1.5-1.4c0-0.8-0.6-1.4-1.4-1.4c-0.8,0-1.4,0.6-1.5,1.4C29.8,306.1,30.4,306.8,31.2,306.8"/>
	<path class="st1" d="M40.7,304.9c-1.6,0-2.9-1.3-2.9-2.9c0-1.6,1.3-2.9,2.9-2.9c1.6,0,2.9,1.3,2.9,2.9
		C43.6,303.6,42.3,304.9,40.7,304.9 M40.5,302.9c0.1,0,0.2,0,0.3,0c0.2-0.3,0.6-0.6,0.5-0.8c0-0.2-0.4-0.6-0.6-0.7
		c-0.4-0.1-0.8,0.2-0.7,0.6C40,302.3,40.3,302.6,40.5,302.9"/>
</g>
</svg>
