<?xml version="1.0" encoding="utf-8"?>
<!-- Generator: Adobe Illustrator 19.1.0, SVG Export Plug-In . SVG Version: 6.00 Build 0)  -->
<svg version="1.1" id="Layer_1" xmlns="http://www.w3.org/2000/svg" xmlns:xlink="http://www.w3.org/1999/xlink" x="0px" y="0px"
	 viewBox="0 0 755 135" style="enable-background:new 0 0 755 135;" xml:space="preserve">
<style type="text/css">
	.st0{fill:#053456;}
	.st1{font-family:'Gordita-Medium';}
	.st2{font-size:36px;}
	.st3{clip-path:url(#SVGID_2_);fill:url(#SVGID_3_);}
	.st4{clip-path:url(#SVGID_5_);fill:url(#SVGID_6_);}
	.st5{clip-path:url(#SVGID_8_);fill:url(#SVGID_9_);}
	.st6{clip-path:url(#SVGID_8_);fill:none;stroke:#FF9800;stroke-width:2.013;stroke-miterlimit:10;}
	.st7{fill:none;stroke:#053456;stroke-width:2;stroke-miterlimit:10;}
	.st8{fill:none;stroke:#053456;stroke-width:2;stroke-linecap:round;stroke-miterlimit:10;}
</style>
<g>
	<text transform="matrix(1 0 0 1 162.9056 77.6379)"><tspan x="0" y="0" class="st0 st1 st2">gene</tspan><tspan x="91.4" y="0" class="st0 st1 st2">r</tspan><tspan x="105.3" y="0" class="st0 st1 st2">almen</tspan><tspan x="216" y="0" class="st0 st1 st2">t</tspan><tspan x="230.6" y="0" class="st0 st1 st2">e se </tspan><tspan x="312" y="0" class="st0 st1 st2">f</tspan><tspan x="326.2" y="0" class="st0 st1 st2">abrican en:</tspan></text>
	<g>
		<defs>
			<path id="SVGID_1_" d="M46.5,4.4c-4.4,0-8.5,2.4-10.7,6.2L6.2,61.8C4,65.7,4,70.4,6.2,74.2l29.6,51.2c2.2,3.8,6.3,6.2,10.7,6.2
				h664.3c4.4,0,8.5-2.4,10.7-6.2l29.6-51.2c2.2-3.8,2.2-8.6,0-12.4l-29.6-51.2c-2.2-3.8-6.3-6.2-10.7-6.2H46.5z"/>
		</defs>
		<clipPath id="SVGID_2_">
			<use xlink:href="#SVGID_1_"  style="overflow:visible;"/>
		</clipPath>
		
			<linearGradient id="SVGID_3_" gradientUnits="userSpaceOnUse" x1="-143.0991" y1="1015.2578" x2="-142.0991" y2="1015.2578" gradientTransform="matrix(-322.502 425.3691 425.3691 322.502 -477457.125 -266713.125)">
			<stop  offset="0" style="stop-color:#A33800"/>
			<stop  offset="0.1692" style="stop-color:#FF8200"/>
			<stop  offset="0.3535" style="stop-color:#FFCF17"/>
			<stop  offset="0.5025" style="stop-color:#FFEE8D"/>
			<stop  offset="0.6414" style="stop-color:#FFCF17"/>
			<stop  offset="0.798" style="stop-color:#E66000"/>
			<stop  offset="1" style="stop-color:#E66000"/>
		</linearGradient>
		<polygon class="st3" points="814.6,50.9 479.9,492.4 -57.2,85.2 277.5,-356.3 		"/>
	</g>
	<g>
		<defs>
			<path id="SVGID_4_" d="M46.5,10.5c-2.3,0-4.4,1.2-5.5,3.2L11.5,64.8c-1.1,2-1.1,4.4,0,6.4L41,122.4c1.1,2,3.2,3.2,5.5,3.2h664.3
				c2.3,0,4.4-1.2,5.5-3.2l29.6-51.2c1.1-2,1.1-4.4,0-6.4l-29.6-51.2c-1.1-2-3.2-3.2-5.5-3.2H46.5z"/>
		</defs>
		<clipPath id="SVGID_5_">
			<use xlink:href="#SVGID_4_"  style="overflow:visible;"/>
		</clipPath>
		
			<linearGradient id="SVGID_6_" gradientUnits="userSpaceOnUse" x1="-143.2274" y1="1014.639" x2="-142.2274" y2="1014.639" gradientTransform="matrix(421.2779 372.6693 372.6693 -421.2779 -317672.375 480655.25)">
			<stop  offset="0" style="stop-color:#A33800"/>
			<stop  offset="0.1692" style="stop-color:#FF8200"/>
			<stop  offset="0.3535" style="stop-color:#FFCF17"/>
			<stop  offset="0.5025" style="stop-color:#FFEE8D"/>
			<stop  offset="0.6414" style="stop-color:#FFCF17"/>
			<stop  offset="0.798" style="stop-color:#E66000"/>
			<stop  offset="1" style="stop-color:#E66000"/>
		</linearGradient>
		<polygon class="st4" points="333.8,-355.2 804.2,61 423.6,491.2 -46.8,75 		"/>
	</g>
	<g>
		<defs>
			<path id="SVGID_7_" d="M48.3,14.5c-1.9,0-3.7,1-4.6,2.7L15.8,65.3c-1,1.7-1,3.7,0,5.4l27.8,48.2c1,1.7,2.7,2.7,4.6,2.7h660.8
				c1.9,0,3.7-1,4.6-2.7l27.8-48.2c1-1.7,1-3.7,0-5.4l-27.8-48.2c-1-1.7-2.7-2.7-4.6-2.7H48.3z"/>
		</defs>
		<clipPath id="SVGID_8_">
			<use xlink:href="#SVGID_7_"  style="overflow:visible;"/>
		</clipPath>
		
			<linearGradient id="SVGID_9_" gradientUnits="userSpaceOnUse" x1="-143.2897" y1="1014.6268" x2="-142.2897" y2="1014.6268" gradientTransform="matrix(493.3581 330.6974 330.6974 -493.3581 -264774 547819.1875)">
			<stop  offset="0" style="stop-color:#FFCF17"/>
			<stop  offset="0.2096" style="stop-color:#FFE061"/>
			<stop  offset="0.3535" style="stop-color:#FFCF17"/>
			<stop  offset="0.5025" style="stop-color:#FFEE8D"/>
			<stop  offset="0.6414" style="stop-color:#FFCF17"/>
			<stop  offset="0.8611" style="stop-color:#FFEE8D"/>
			<stop  offset="1" style="stop-color:#FFEE8D"/>
		</linearGradient>
		<polygon class="st5" points="240.5,-322.1 792.1,47.7 516.9,458.1 -34.7,88.4 		"/>
		<path class="st6" d="M11.4,125.8c9.8,0,9.8,5.8,19.7,5.8c9.8,0,9.8-5.8,19.7-5.8c9.8,0,9.8,5.8,19.7,5.8c9.8,0,9.8-5.8,19.7-5.8
			c9.8,0,9.8,5.8,19.7,5.8c9.8,0,9.8-5.8,19.7-5.8c9.8,0,9.8,5.8,19.7,5.8c9.8,0,9.8-5.8,19.7-5.8c9.8,0,9.8,5.8,19.7,5.8
			c9.8,0,9.8-5.8,19.7-5.8c9.8,0,9.8,5.8,19.7,5.8s9.8-5.8,19.7-5.8c9.8,0,9.8,5.8,19.7,5.8c9.8,0,9.8-5.8,19.7-5.8
			c9.8,0,9.8,5.8,19.7,5.8c9.8,0,9.8-5.8,19.7-5.8c9.8,0,9.8,5.8,19.7,5.8s9.8-5.8,19.7-5.8c9.8,0,9.8,5.8,19.7,5.8
			c9.9,0,9.9-5.8,19.7-5.8c9.8,0,9.8,5.8,19.7,5.8c9.9,0,9.9-5.8,19.7-5.8c9.9,0,9.9,5.8,19.7,5.8"/>
		<path class="st6" d="M445.2,125.8c9.8,0,9.8,5.8,19.7,5.8c9.8,0,9.8-5.8,19.7-5.8c9.8,0,9.8,5.8,19.7,5.8c9.8,0,9.8-5.8,19.7-5.8
			s9.8,5.8,19.7,5.8c9.8,0,9.8-5.8,19.7-5.8c9.8,0,9.8,5.8,19.7,5.8c9.8,0,9.8-5.8,19.7-5.8c9.8,0,9.8,5.8,19.7,5.8
			c9.8,0,9.8-5.8,19.7-5.8c9.8,0,9.8,5.8,19.7,5.8c9.8,0,9.8-5.8,19.7-5.8c9.8,0,9.8,5.8,19.7,5.8c9.8,0,9.8-5.8,19.7-5.8
			c9.8,0,9.8,5.8,19.7,5.8c9.8,0,9.8-5.8,19.7-5.8c9.8,0,9.8,5.8,19.7,5.8c9.8,0,9.8-5.8,19.7-5.8c9.8,0,9.8,5.8,19.7,5.8
			c9.9,0,9.9-5.8,19.7-5.8c9.8,0,9.8,5.8,19.7,5.8c9.9,0,9.9-5.8,19.7-5.8c9.9,0,9.9,5.8,19.7,5.8"/>
	</g>
	<g>
		<path class="st0" d="M174.4,50.1H188c3.9,0,7,1,9.4,2.9c2.4,1.9,3.6,4.7,3.6,8.4c0,3.8-1.3,6.7-3.8,8.6c-2.5,1.9-5.8,2.9-9.7,2.9
			h-4.3v12h-8.8V50.1z M183.2,65.5h4.2c3.2,0,4.9-1.2,4.9-3.7c0-2.6-1.6-4-4.9-4h-4.1V65.5z"/>
		<path class="st0" d="M214.6,84.9h-8.8V50.1h8.8V84.9z"/>
		<path class="st0" d="M243.4,82.3c-2.4,2-5.6,3.1-9.9,3.1c-7.2,0-11.9-2.7-14.1-8l7.2-3.7c1.3,2.8,3.6,4.3,6.9,4.3
			c2.8,0,4.5-1.1,4.5-2.9c0-1.6-1.3-2.4-5.4-3.6c-7.8-2.1-11.8-5.3-11.8-11.1c0-3.2,1.2-5.8,3.7-7.8c2.5-2,5.5-3.1,9-3.1
			c6.4,0,10.9,3,12.8,7.6l-7.2,3.9c-1.2-2.8-3.1-4.1-5.9-4.1c-2.2,0-3.7,1.2-3.7,2.9c0,1.5,1,2.5,4.7,3.6c4.4,1.3,7.6,2.8,9.6,4.4
			c2,1.6,3,3.8,3,6.7C246.9,77.7,245.8,80.3,243.4,82.3z"/>
		<path class="st0" d="M258.5,58.1h-9.9v-8h28.4v8h-9.8v26.8h-8.8V58.1z"/>
		<path class="st0" d="M283.3,84.9h-9.2l13.4-34.8h9.9l13.4,34.8h-9.3l-2.4-6.4h-13.4L283.3,84.9z M292.4,60l-4.1,11.1h8.4L292.4,60
			z"/>
		<path class="st0" d="M332.1,84.9h-8.8V50.1h8.8V84.9z"/>
		<path class="st0" d="M347.9,63.9v21h-8.7V50.1h9.7l12.8,19.6h0V50.1h8.7v34.8h-8.8L347.9,63.9L347.9,63.9z"/>
		<path class="st0" d="M400.3,64.4v7.7h-14v12.8h-8.7V50.1h24.2v8h-15.5v6.3H400.3z"/>
		<path class="st0" d="M410.2,54.8c3.6-3.5,7.9-5.2,12.9-5.2s9.3,1.7,12.8,5.2c3.5,3.4,5.3,7.6,5.3,12.7s-1.8,9.3-5.3,12.8
			c-3.5,3.5-7.8,5.2-12.8,5.2s-9.3-1.7-12.9-5.2c-3.5-3.5-5.3-7.7-5.3-12.8C404.8,62.5,406.6,58.3,410.2,54.8z M413.8,67.5
			c0,2.6,0.9,4.9,2.7,6.9c1.8,1.9,4,2.9,6.6,2.9s4.8-1,6.6-2.9c1.8-2,2.7-4.3,2.7-6.9c0-2.6-0.9-4.9-2.7-6.8c-1.8-1.9-4-2.9-6.6-2.9
			s-4.8,1-6.6,2.9C414.6,62.5,413.8,64.8,413.8,67.5z"/>
		<path class="st0" d="M455.2,84.9h-8.8V50.1h14.3c4,0,7.1,0.9,9.5,2.8c2.4,1.9,3.6,4.7,3.6,8.4c0,5.3-2.8,8.6-6.9,10l7.7,13.6H465
			l-7-12.2h-2.8V84.9z M455.2,65.2h4.8c3.2,0,4.9-1.3,4.9-3.6c0-2.4-1.5-4-4.9-4h-4.8V65.2z"/>
		<path class="st0" d="M510.4,64l-8.5,20.9h-5.4l-8.6-20.6h-0.1v20.6h-8.4V50.1h10.5l9.2,21.9l8.9-21.9H519v34.8h-8.6L510.4,64
			L510.4,64z"/>
		<path class="st0" d="M531.5,84.9h-9.2l13.4-34.8h9.9l13.4,34.8h-9.3l-2.4-6.4h-13.4L531.5,84.9z M540.5,60l-4.1,11.1h8.4L540.5,60
			z"/>
		<path class="st0" d="M565.8,58.1H556v-8h28.4v8h-9.8v26.8h-8.8V58.1z"/>
		<path class="st0" d="M597.6,84.9h-8.8V50.1h8.8V84.9z"/>
		<path class="st0" d="M611.3,50.1l7.6,23l7.6-23h9.5l-12.5,34.8h-9.2l-12.5-34.8H611.3z"/>
		<path class="st0" d="M642.4,84.9h-9.2l13.4-34.8h9.9l13.4,34.8h-9.3l-2.4-6.4h-13.4L642.4,84.9z M651.4,60l-4.1,11.1h8.4L651.4,60
			z"/>
	</g>
	<path class="st7" d="M100.5,42.9c0.1,0.1,0.2,0.1,0.3,0.2c0.8,0.4,1.2,1,1.3,1.9c0,0.7,0,1.3,0,2c0,0.3,0.1,0.4,0.4,0.5
		c6.2,1.1,10.8,5.6,12.1,11.7c0.2,1,0.3,2.1,0.3,3.2c0.1,2.2,0,4.5,0.1,6.7c0.2,3.8,1.9,7,4.7,9.6c0.8,0.7,1.4,1.6,1.5,2.7
		c0.2,2.2-1.4,4-3.6,4.1c-0.1,0-0.3,0-0.4,0c-11.5,0-22.9,0-34.4,0c-1.3,0-2.4-0.4-3.3-1.5c-1.2-1.6-1-3.8,0.6-5.2
		c1.4-1.2,2.5-2.7,3.4-4.3c1.1-2.1,1.6-4.4,1.6-6.7c0-2,0-4.1,0-6.1c0.1-7,5.4-13.1,12.3-14.2c0.4-0.1,0.5-0.2,0.5-0.6
		c0-0.4,0-0.8,0-1.2c-0.1-1.3,0.4-2.3,1.6-2.7H100.5z"/>
	<g>
		<path class="st0" d="M104.8,89.6c-1,1.3-2.5,2.3-4.7,2.4l-0.1,0c-2,0-3.7-1-4.7-2.4H104.8 M107.8,87.6H92.3c0.5,3,3.5,6.4,7.7,6.4
			c0,0,0.1,0,0.1,0C104.6,93.9,107.4,90.3,107.8,87.6L107.8,87.6z"/>
	</g>
	<path class="st8" d="M90.2,61.2c0-4.7,3.8-8.5,8.5-8.5"/>
</g>
</svg>
