<?xml version="1.0" encoding="utf-8"?>
<!-- Generator: Adobe Illustrator 19.1.0, SVG Export Plug-In . SVG Version: 6.00 Build 0)  -->
<svg version="1.1" id="Layer_1" xmlns="http://www.w3.org/2000/svg" xmlns:xlink="http://www.w3.org/1999/xlink" x="0px" y="0px"
	 viewBox="-66 221 670 120" style="enable-background:new -66 221 670 120;" xml:space="preserve">
<style type="text/css">
	.st0{fill:#F5F5F5;}
	.st1{clip-path:url(#SVGID_2_);fill:url(#SVGID_3_);}
	.st2{clip-path:url(#SVGID_5_);fill:url(#SVGID_6_);}
	.st3{clip-path:url(#SVGID_8_);fill:url(#SVGID_9_);}
	.st4{clip-path:url(#SVGID_8_);fill:none;stroke:#FF9800;stroke-width:1.783;stroke-miterlimit:10;}
</style>
<g>
	<g>
		<defs>
			<path id="SVGID_1_" d="M-24.5,224.6c-4.2,0-8.1,2.2-10.1,5.9l-25.8,44.6c-2.1,3.6-2.1,8.1,0,11.7l25.8,44.6
				c2.1,3.6,6,5.9,10.1,5.9h587.7c4.2,0,8.1-2.2,10.1-5.9l25.8-44.6c2.1-3.6,2.1-8.1,0-11.7l-25.8-44.6c-2.1-3.6-6-5.9-10.1-5.9
				H-24.5z"/>
		</defs>
		<clipPath id="SVGID_2_">
			<use xlink:href="#SVGID_1_"  style="overflow:visible;"/>
		</clipPath>
		
			<linearGradient id="SVGID_3_" gradientUnits="userSpaceOnUse" x1="-269.178" y1="1241.5876" x2="-268.178" y2="1241.5876" gradientTransform="matrix(-285.5722 376.66 376.66 285.5722 -544103.4375 -253095.6406)">
			<stop  offset="0" style="stop-color:#A33800"/>
			<stop  offset="0.1692" style="stop-color:#FF8200"/>
			<stop  offset="0.3535" style="stop-color:#FFCF17"/>
			<stop  offset="0.5025" style="stop-color:#FFEE8D"/>
			<stop  offset="0.6414" style="stop-color:#FFCF17"/>
			<stop  offset="0.798" style="stop-color:#E66000"/>
			<stop  offset="1" style="stop-color:#E66000"/>
		</linearGradient>
		<polygon class="st1" points="655.4,265.8 358.9,656.9 -116.8,296.2 179.7,-94.9 		"/>
	</g>
	<g>
		<defs>
			<path id="SVGID_4_" d="M-24.5,230c-2.3,0-4.4,1.2-5.5,3.2l-25.8,44.6c-1.1,2-1.1,4.4,0,6.4l25.8,44.6c1.1,2,3.2,3.2,5.5,3.2
				h587.7c2.3,0,4.4-1.2,5.5-3.2l25.8-44.6c1.1-2,1.1-4.4,0-6.4l-25.8-44.6c-1.1-2-3.2-3.2-5.5-3.2H-24.5z"/>
		</defs>
		<clipPath id="SVGID_5_">
			<use xlink:href="#SVGID_4_"  style="overflow:visible;"/>
		</clipPath>
		
			<linearGradient id="SVGID_6_" gradientUnits="userSpaceOnUse" x1="-269.3852" y1="1240.2643" x2="-268.3852" y2="1240.2643" gradientTransform="matrix(373.1126 330.0615 330.0615 -373.1126 -308817.6563 551745.4375)">
			<stop  offset="0" style="stop-color:#A33800"/>
			<stop  offset="0.1692" style="stop-color:#FF8200"/>
			<stop  offset="0.3535" style="stop-color:#FFCF17"/>
			<stop  offset="0.5025" style="stop-color:#FFEE8D"/>
			<stop  offset="0.6414" style="stop-color:#FFCF17"/>
			<stop  offset="0.798" style="stop-color:#E66000"/>
			<stop  offset="1" style="stop-color:#E66000"/>
		</linearGradient>
		<polygon class="st2" points="229.5,-93.8 646.2,274.8 309.1,655.8 -107.6,287.2 		"/>
	</g>
	<g>
		<defs>
			<path id="SVGID_7_" d="M-23,233.6c-1.9,0-3.7,1-4.6,2.7L-52,278.3c-1,1.7-1,3.7,0,5.4l24.3,42.1c1,1.7,2.7,2.7,4.6,2.7h584.7
				c1.9,0,3.7-1,4.6-2.7l24.3-42.1c1-1.7,1-3.7,0-5.4l-24.3-42.1c-1-1.7-2.7-2.7-4.6-2.7H-23z"/>
		</defs>
		<clipPath id="SVGID_8_">
			<use xlink:href="#SVGID_7_"  style="overflow:visible;"/>
		</clipPath>
		
			<linearGradient id="SVGID_9_" gradientUnits="userSpaceOnUse" x1="-269.5159" y1="1240.2321" x2="-268.5159" y2="1240.2321" gradientTransform="matrix(437.0337 292.9432 292.9432 -437.0337 -245536.5156 621072.0625)">
			<stop  offset="0" style="stop-color:#FFCF17"/>
			<stop  offset="0.2096" style="stop-color:#FFE061"/>
			<stop  offset="0.3535" style="stop-color:#FFCF17"/>
			<stop  offset="0.5025" style="stop-color:#FFEE8D"/>
			<stop  offset="0.6414" style="stop-color:#FFCF17"/>
			<stop  offset="0.8611" style="stop-color:#FFEE8D"/>
			<stop  offset="1" style="stop-color:#FFEE8D"/>
		</linearGradient>
		<polygon class="st3" points="146.9,-64.5 635.5,263 391.8,626.5 -96.8,299 		"/>
		<path class="st4" d="M-56.1,332.1c8.7,0,8.7,5.2,17.4,5.2c8.7,0,8.7-5.2,17.4-5.2c8.7,0,8.7,5.2,17.4,5.2c8.7,0,8.7-5.2,17.4-5.2
			c8.7,0,8.7,5.2,17.4,5.2s8.7-5.2,17.4-5.2c8.7,0,8.7,5.2,17.4,5.2c8.7,0,8.7-5.2,17.4-5.2c8.7,0,8.7,5.2,17.4,5.2
			c8.7,0,8.7-5.2,17.4-5.2c8.7,0,8.7,5.2,17.4,5.2c8.7,0,8.7-5.2,17.4-5.2c8.7,0,8.7,5.2,17.4,5.2c8.7,0,8.7-5.2,17.4-5.2
			c8.7,0,8.7,5.2,17.4,5.2c8.7,0,8.7-5.2,17.4-5.2c8.7,0,8.7,5.2,17.4,5.2c8.7,0,8.7-5.2,17.4-5.2c8.7,0,8.7,5.2,17.4,5.2
			c8.7,0,8.7-5.2,17.5-5.2c8.7,0,8.7,5.2,17.4,5.2c8.7,0,8.7-5.2,17.5-5.2c8.7,0,8.7,5.2,17.5,5.2"/>
		<path class="st4" d="M328.3,332.1c8.7,0,8.7,5.2,17.4,5.2c8.7,0,8.7-5.2,17.4-5.2c8.7,0,8.7,5.2,17.4,5.2c8.7,0,8.7-5.2,17.4-5.2
			c8.7,0,8.7,5.2,17.4,5.2c8.7,0,8.7-5.2,17.4-5.2c8.7,0,8.7,5.2,17.4,5.2c8.7,0,8.7-5.2,17.4-5.2c8.7,0,8.7,5.2,17.4,5.2
			c8.7,0,8.7-5.2,17.4-5.2c8.7,0,8.7,5.2,17.4,5.2c8.7,0,8.7-5.2,17.4-5.2c8.7,0,8.7,5.2,17.4,5.2c8.7,0,8.7-5.2,17.4-5.2
			c8.7,0,8.7,5.2,17.4,5.2c8.7,0,8.7-5.2,17.4-5.2c8.7,0,8.7,5.2,17.4,5.2c8.7,0,8.7-5.2,17.4-5.2c8.7,0,8.7,5.2,17.4,5.2
			c8.7,0,8.7-5.2,17.5-5.2c8.7,0,8.7,5.2,17.4,5.2c8.7,0,8.7-5.2,17.5-5.2s8.7,5.2,17.5,5.2"/>
	</g>
</g>
</svg>
